<svg xmlns="http://www.w3.org/2000/svg" id="img_mobile_about_logo_primary" width="256" height="137" viewBox="0 0 256 137">
    <defs>
        <style>
            .cls-1{fill:#0081cc}.cls-2{fill:#0062b1}.cls-3{fill:#009ce5}.cls-4{fill:#004098}.cls-5{fill:none}
        </style>
    </defs>
    <g id="그룹_182" data-name="그룹 182" transform="translate(48.646 26.513)">
        <g id="그룹_180" data-name="그룹 180" transform="translate(38.822)">
            <g id="그룹_179" data-name="그룹 179">
                <g id="그룹_178" data-name="그룹 178">
                    <path id="패스_612" d="M94.5 47.34h10.027l-5.013-8.74z" class="cls-1" data-name="패스 612" transform="translate(-69.296 -12.448)"/>
                    <path id="패스_613" d="M164 47.34l-5.014-8.74-5.086 8.74z" class="cls-2" data-name="패스 613" transform="translate(-88.451 -12.448)"/>
                    <path id="패스_614" d="M139.1 51.5l5.014 8.74 5.014-8.74H139.1z" class="cls-2" data-name="패스 614" transform="translate(-83.679 -16.608)"/>
                    <path id="패스_615" d="M124.2 25.7l5.014 8.74 5.086-8.74z" class="cls-1" data-name="패스 615" transform="translate(-78.874 -8.288)"/>
                    <path id="패스_616" d="M129.214 38.6l-5.014 8.74h10.1z" class="cls-1" data-name="패스 616" transform="translate(-78.874 -12.448)"/>
                    <path id="패스_617" d="M92.081 17.412h10.027L97.1 8.74 102.109 0H92.081L87 8.74z" class="cls-3" data-name="패스 617" transform="translate(-66.878)"/>
                    <path id="패스_618" d="M104.527 25.7H94.5l5.014 8.74z" class="cls-1" data-name="패스 618" transform="translate(-69.296 -8.288)"/>
                    <path id="패스_619" d="M166.622 60.24l-5.014-8.74h-10.1l-5.008 8.74 5.014 8.672h10.1l2.507-4.336z" class="cls-4" data-name="패스 619" transform="translate(-86.065 -16.608)"/>
                    <path id="패스_620" d="M131.909 51.5h-10.1l-5.009 8.74 5.014 8.672h10.1l5.014-8.672z" class="cls-4" data-name="패스 620" transform="translate(-76.487 -16.608)"/>
                    <path id="패스_621" d="M79.6 68.912h10.1l5.014-8.672L89.7 51.5z" class="cls-2" data-name="패스 621" transform="translate(-64.491 -16.608)"/>
                    <path id="패스_622" d="M87.309 51.5h-10.1L72.2 60.24l5.014 8.672z" class="cls-1" data-name="패스 622" transform="translate(-62.105 -16.608)"/>
                    <path id="패스_623" d="M146.709 43.18l5.081-8.74-5.081-8.74h-10.028l-5.081 8.74 5.081 8.74z" class="cls-4" data-name="패스 623" transform="translate(-81.26 -8.288)"/>
                    <path id="패스_624" d="M117.009 43.18l5.014-8.74-5.014-8.74h-10.1l-5.009 8.74 5.014 8.74z" class="cls-2" data-name="패스 624" transform="translate(-71.682 -8.288)"/>
                    <path id="패스_625" d="M87.309 43.18l5.014-8.74-5.014-8.74h-10.1L72.2 34.44l5.014 8.74z" class="cls-3" data-name="패스 625" transform="translate(-62.105 -8.288)"/>
                    <path id="패스_626" d="M124.2 17.412h10.1l5.014-8.672L134.3 0h-10.1l5.014 8.74z" class="cls-2" data-name="패스 626" transform="translate(-78.874)"/>
                    <path id="패스_627" d="M109.3 21.572h10.1l-5.019-8.672z" class="cls-1" data-name="패스 627" transform="translate(-74.069 -4.16)"/>
                    <path id="패스_628" d="M119.4 0h-10.1l5.081 8.74z" class="cls-3" data-name="패스 628" transform="translate(-74.069)"/>
                    <path id="패스_629" d="M106.914 17.412L112 8.74 106.914 0 101.9 8.74z" class="cls-1" data-name="패스 629" transform="translate(-71.682)"/>
                    <path id="패스_630" d="M116.8 8.74l5.014 8.672 5.014-8.672L121.814 0z" class="cls-1" data-name="패스 630" transform="translate(-76.487)"/>
                    <path id="패스_631" d="M72.409 17.412l5.013-8.672L72.409 0h-10.1L57.3 8.74l5.014 8.672z" class="cls-3" data-name="패스 631" transform="translate(-57.3)"/>
                    <path id="패스_632" d="M161.609 17.412l5.014-8.672L161.609 0h-10.1L146.5 8.74l5.014 8.672z" class="cls-4" data-name="패스 632" transform="translate(-86.065)"/>
                </g>
                <path id="패스_633" d="M69.781 38.6L64.7 47.34h10.1z" class="cls-1" data-name="패스 633" transform="translate(-59.686 -12.448)"/>
                <path id="패스_634" d="M72.409 51.5h-10.1L57.3 60.24l5.014 8.672h10.1L67.4 60.24z" class="cls-3" data-name="패스 634" transform="translate(-57.3 -16.608)"/>
                <path id="패스_635" d="M144.114 12.9l-5.014 8.672h10.027z" class="cls-1" data-name="패스 635" transform="translate(-83.679 -4.16)"/>
                <path id="패스_636" d="M153.9 25.7H164l-5.014 8.74z" class="cls-2" data-name="패스 636" transform="translate(-88.451 -8.288)"/>
                <path id="패스_637" d="M84.614 12.9L79.6 21.572h10.1z" class="cls-1" data-name="패스 637" transform="translate(-64.491 -4.16)"/>
                <path id="패스_638" d="M64.7 25.7h10.1l-5.014 8.74z" class="cls-1" data-name="패스 638" transform="translate(-59.686 -8.288)"/>
            </g>
        </g>
        <g id="그룹_181" data-name="그룹 181" transform="translate(0 67.143)">
            <path id="패스_639" d="M0 113.125V99.1h2.913v14.025z" data-name="패스 639" transform="translate(0 -99.1)"/>
            <path id="패스_640" d="M10.542 106.152a2.046 2.046 0 0 1 1.016-.881 2.853 2.853 0 0 1 1.356-.271 2.21 2.21 0 0 1 2.439 2.168v7.859h-2.71v-6.775c0-.881-.136-1.558-1.016-1.558s-1.016.678-1.016 1.558v6.775H7.9V105.2h2.71v.949z" data-name="패스 640" transform="translate(-2.548 -101.003)"/>
            <path id="패스_641" d="M24.842 106.152a2.046 2.046 0 0 1 1.016-.881 2.853 2.853 0 0 1 1.356-.271 2.21 2.21 0 0 1 2.439 2.168v7.859h-2.71v-6.775c0-.881-.136-1.558-1.016-1.558s-1.016.678-1.016 1.558v6.775H22.2V105.2h2.71v.949z" data-name="패스 641" transform="translate(-7.159 -101.003)"/>
            <path id="패스_642" d="M36.1 109.946c0-2.71.407-4.946 4-4.946s4 2.3 4 4.946c0 3.049-.474 5.217-4 5.217s-4-2.1-4-5.217zm5.217-.135c0-2.033-.068-3.049-1.287-3.049s-1.287 1.016-1.287 3.049c0 2.981.271 3.659 1.287 3.659s1.287-.678 1.287-3.66z" data-name="패스 642" transform="translate(-11.641 -101.003)"/>
            <path id="패스_643" d="M49.4 105.3h2.778l1.355 7.385h.067l1.423-7.385h2.71l-2.71 9.824h-2.981z" data-name="패스 643" transform="translate(-15.93 -101.099)"/>
            <path id="패스_644" d="M70.692 113.263a16.611 16.611 0 0 0 .136 1.829h-2.576l-.135-1.287h-.068a2.712 2.712 0 0 1-2.575 1.491c-1.9 0-2.575-1.423-2.575-3.117 0-3.252 2.507-3.388 5.081-3.32v-.745c0-.813-.136-1.423-1.084-1.423s-1.016.745-1.016 1.491h-2.71a2.562 2.562 0 0 1 1.016-2.371 4.156 4.156 0 0 1 2.575-.61c3.455 0 3.93 1.491 3.93 3.252zm-5.014-1.22c0 .678.135 1.558 1.016 1.558 1.626 0 1.355-2.168 1.355-3.252-1.355.068-2.371-.068-2.371 1.694z" data-name="패스 644" transform="translate(-20.284 -101.067)"/>
            <path id="패스_645" d="M76.168 103.978h1.084v-1.558l2.71-1.22v2.778h1.423v1.694h-1.423v5.217c0 .745 0 1.22.881 1.22a1 1 0 0 0 .474-.068v1.694a7.837 7.837 0 0 1-1.423.068c-2.371 0-2.71-1.558-2.71-2.168V105.6H76.1v-1.626z" data-name="패스 645" transform="translate(-24.54 -99.777)"/>
            <path id="패스_646" d="M88.81 99.1v2.168H86.1V99.1zm0 14.025H86.1V103.3h2.71z" data-name="패스 646" transform="translate(-27.765 -99.1)"/>
            <path id="패스_647" d="M93.4 109.946c0-2.71.407-4.946 4-4.946s4 2.3 4 4.946c0 3.049-.474 5.217-4 5.217s-4-2.1-4-5.217zm5.217-.135c0-2.033-.068-3.049-1.287-3.049s-1.287 1.016-1.287 3.049c0 2.981.271 3.659 1.287 3.659s1.287-.678 1.287-3.66z" data-name="패스 647" transform="translate(-30.119 -101.003)"/>
            <path id="패스_648" d="M110.842 106.152a2.046 2.046 0 0 1 1.016-.881 2.853 2.853 0 0 1 1.355-.271 2.21 2.21 0 0 1 2.439 2.168v7.859h-2.71v-6.775c0-.881-.136-1.558-1.016-1.558s-1.016.678-1.016 1.558v6.775h-2.71V105.2h2.71v.949z" data-name="패스 648" transform="translate(-34.892 -101.003)"/>
            <path id="패스_649" d="M127.3 113.125l3.862-14.025h3.862l3.794 14.025H135.7l-.745-3.117h-4l-.813 3.117zm5.691-11.315l-1.355 6.03h2.778z" data-name="패스 649" transform="translate(-41.051 -99.1)"/>
            <path id="패스_650" d="M151.117 108.659c0-1.423-.339-1.965-1.22-1.965-1.152 0-1.287 1.016-1.287 3.049 0 2.981.271 3.659 1.287 3.659.881 0 1.287-.745 1.287-2.033h2.71c0 2.642-1.423 3.794-4 3.794-3.523 0-4-2.168-4-5.217 0-2.71.407-4.946 4-4.946 2.507 0 3.93 1.152 3.93 3.659z" data-name="패스 650" transform="translate(-47.049 -101.003)"/>
            <path id="패스_651" d="M167.824 113.263a16.6 16.6 0 0 0 .135 1.829h-2.507l-.135-1.287h-.068a2.712 2.712 0 0 1-2.575 1.491c-1.9 0-2.575-1.423-2.575-3.117 0-3.252 2.507-3.388 5.081-3.32v-.745c0-.813-.136-1.423-1.084-1.423s-1.016.745-1.016 1.491h-2.71a2.562 2.562 0 0 1 1.016-2.371 4.156 4.156 0 0 1 2.575-.61c3.455 0 3.93 1.491 3.93 3.252v4.81zm-5.014-1.22c0 .678.136 1.558 1.016 1.558 1.626 0 1.355-2.168 1.355-3.252-1.355.068-2.371-.068-2.371 1.694z" data-name="패스 651" transform="translate(-51.629 -101.067)"/>
            <path id="패스_652" d="M179.681 113.157v-1.084h-.068a2.33 2.33 0 0 1-2.3 1.287c-2.846 0-2.71-3.117-2.71-5.149 0-1.965-.068-5.014 2.71-5.014a2.3 2.3 0 0 1 2.236 1.152h.068V99.2h2.71v14.025h-2.642zm-.136-5.014c0-1.965 0-3.32-1.084-3.32-1.152 0-1.152 1.355-1.152 3.32 0 2.439.2 3.523 1.152 3.523.881 0 1.084-1.084 1.084-3.523z" data-name="패스 652" transform="translate(-56.304 -99.132)"/>
            <path id="패스_653" d="M191.578 110.588c0 1.152.068 2.913 1.22 2.913.949 0 1.152-.949 1.152-1.762h2.778a3.877 3.877 0 0 1-1.016 2.575 4.065 4.065 0 0 1-2.913.949c-3.523 0-4-2.168-4-5.217 0-2.71.406-4.946 4-4.946 3.659 0 4.065 2.371 4 5.556h-5.217zm2.507-1.558c0-.949.068-2.3-1.287-2.3-1.287 0-1.22 1.491-1.22 2.3z" data-name="패스 653" transform="translate(-60.884 -101.035)"/>
            <path id="패스_654" d="M206.042 106.152a2.5 2.5 0 0 1 2.372-1.152 2.423 2.423 0 0 1 2.168 1.22 2.822 2.822 0 0 1 2.575-1.22 2.21 2.21 0 0 1 2.439 2.168v7.859h-2.71v-6.775c0-.881-.136-1.558-1.016-1.558s-1.016.678-1.016 1.558v6.775h-2.71v-6.775c0-.881-.135-1.558-1.016-1.558s-1.016.678-1.016 1.558v6.775H203.4V105.2h2.71v.949z" data-name="패스 654" transform="translate(-65.592 -101.003)"/>
            <path id="패스_655" d="M225.542 115.192L222.9 105.3h2.71l1.423 6.911h.068l1.491-6.911h2.642l-3.794 13.483h-2.846z" data-name="패스 655" transform="translate(-71.88 -101.099)"/>
        </g>
    </g>
    <path id="사각형_3292" d="M0 0h256v137H0z" class="cls-5" data-name="사각형 3292"/>
</svg>
