<svg xmlns="http://www.w3.org/2000/svg" width="256" height="138" viewBox="0 0 256 138">
    <defs>
        <style>
            .cls-1{fill:#404040}.cls-2{fill:#8c8c8c}.cls-3{fill:#b3b3b3}.cls-4{fill:#1a1a1a}.cls-5{fill:none}
        </style>
    </defs>
    <g id="img_mobie_about_logo_variation" transform="translate(0 .053)">
        <g id="그룹_177" data-name="그룹 177" transform="translate(47.698 25.974)">
            <g id="그룹_175" data-name="그룹 175" transform="translate(38.28)">
                <path id="패스_571" d="M67.137 31.4a.57.57 0 0 1-.474-.271l-10.1-17.412a.546.546 0 1 1 .949-.542l4.878 8.469h9.756a.57.57 0 0 1 .474.271.748.748 0 0 1 0 .542l-5.014 8.74a.615.615 0 0 1-.469.203zm-4.065-8.74l4.065 7.04 4.063-7.044z" class="cls-1" data-name="패스 571" transform="translate(-56.5 -4.092)"/>
                <path id="패스_572" d="M104.277 48.432H94.25a.57.57 0 0 1-.474-.271.748.748 0 0 1 0-.542l5.014-8.74a.57.57 0 0 1 .949 0l5.014 8.74a.748.748 0 0 1 0 .542.57.57 0 0 1-.476.271zM95.2 47.348h8.2L99.331 40.3z" class="cls-1" data-name="패스 572" transform="translate(-68.504 -12.388)"/>
                <path id="패스_573" d="M72.191 65.844H62.164a.57.57 0 0 1-.474-.271l-5.014-8.74a.748.748 0 0 1 0-.542L66.7 38.879a.57.57 0 0 1 .949 0l5.014 8.74a.748.748 0 0 1 0 .542l-4.876 8.469 4.878 8.47a.748.748 0 0 1 0 .542.528.528 0 0 1-.474.202zm-9.756-1.084h8.808L66.7 56.833a.748.748 0 0 1 0-.542l4.878-8.469-4.4-7.588-9.418 16.328z" class="cls-1" data-name="패스 573" transform="translate(-56.54 -12.388)"/>
                <path id="패스_574" d="M153.859 27.236a.57.57 0 0 1-.474-.271l-4.879-8.465h-9.756a.57.57 0 0 1-.474-.271.748.748 0 0 1 0-.542L148.371.271a.57.57 0 0 1 .474-.271h10.1a.57.57 0 0 1 .474.271l5.014 8.74a.748.748 0 0 1 0 .542l-10.1 17.412a.454.454 0 0 1-.474.271zM139.7 17.412h9.147a.57.57 0 0 1 .474.271l4.539 7.927 9.418-16.328-4.743-8.2h-9.418z" class="cls-2" data-name="패스 574" transform="translate(-82.854 .068)"/>
                <path id="패스_575" d="M163.745 48.432h-10.1a.57.57 0 0 1-.474-.271.748.748 0 0 1 0-.542l5.014-8.74a.57.57 0 0 1 .949 0l5.014 8.74a.748.748 0 0 1 0 .542.457.457 0 0 1-.403.271zm-9.145-1.084h8.2l-4.069-7.048z" class="cls-2" data-name="패스 575" transform="translate(-87.659 -12.388)"/>
                <path id="패스_576" d="M143.864 61.224a.57.57 0 0 1-.474-.271l-5.014-8.74a.748.748 0 0 1 0-.542.57.57 0 0 1 .474-.271h10.1a.57.57 0 0 1 .474.271.748.748 0 0 1 0 .542l-5.014 8.74a.7.7 0 0 1-.546.271zm-4.133-8.672L143.8 59.6l4.065-7.046z" class="cls-2" data-name="패스 576" transform="translate(-82.887 -16.508)"/>
                <path id="패스_577" d="M128.964 35.524a.57.57 0 0 1-.474-.271l-5.014-8.74a.748.748 0 0 1 0-.542.57.57 0 0 1 .474-.271h10.027a.57.57 0 0 1 .474.271.748.748 0 0 1 0 .542l-5.014 8.74a.454.454 0 0 1-.473.271zm-4.065-8.74l4.065 7.046 4.065-7.046z" class="cls-2" data-name="패스 577" transform="translate(-78.082 -8.22)"/>
                <path id="패스_578" d="M133.945 48.432h-10.1a.57.57 0 0 1-.474-.271.748.748 0 0 1 0-.542l5.014-8.74a.57.57 0 0 1 .949 0l5.014 8.74a.748.748 0 0 1 0 .542c.004.139-.2.271-.403.271zm-9.079-1.084h8.2L129 40.3z" class="cls-2" data-name="패스 578" transform="translate(-78.05 -12.388)"/>
                <path id="패스_579" d="M101.891 18.5H91.864a.57.57 0 0 1-.474-.271l-5.014-8.74a.748.748 0 0 1 0-.542L91.389.2a.774.774 0 0 1 .474-.2h10.1a.57.57 0 0 1 .474.271.748.748 0 0 1 0 .542l-4.882 8.469 4.878 8.469a.748.748 0 0 1 0 .542.769.769 0 0 1-.542.207zm-9.756-1.084h8.808L96.4 9.485a.748.748 0 0 1 0-.542l4.539-7.927h-8.804l-4.743 8.2z" class="cls-3" data-name="패스 579" transform="translate(-66.118 .068)"/>
                <path id="패스_580" d="M89.445 22.624H79.35a.57.57 0 0 1-.474-.271.748.748 0 0 1 0-.542l5.014-8.74a.57.57 0 0 1 .474-.271.57.57 0 0 1 .474.271l5.014 8.74a.748.748 0 0 1 0 .542.372.372 0 0 1-.407.271zM80.3 21.54h8.2l-4.065-7.046z" class="cls-1" data-name="패스 580" transform="translate(-63.699 -4.06)"/>
                <path id="패스_581" d="M99.264 35.524a.57.57 0 0 1-.474-.271l-5.014-8.74a.748.748 0 0 1 0-.542.57.57 0 0 1 .474-.271h10.1a.57.57 0 0 1 .474.271.748.748 0 0 1 0 .542l-5.014 8.74a.616.616 0 0 1-.546.271zm-4.064-8.74l4.065 7.046 4.065-7.046z" class="cls-1" data-name="패스 581" transform="translate(-68.504 -8.22)"/>
                <path id="패스_582" d="M161.359 69.964h-10.1a.57.57 0 0 1-.474-.271l-5.014-8.74a.748.748 0 0 1 0-.542l5.014-8.74a.57.57 0 0 1 .474-.271h10.1a.57.57 0 0 1 .474.271l5.014 8.74a.748.748 0 0 1 0 .542l-5.014 8.74a.511.511 0 0 1-.474.271zM151.6 68.88h9.418l4.743-8.2-4.743-8.2H151.6l-4.743 8.2z" class="cls-1" data-name="패스 582" transform="translate(-85.273 -16.508)"/>
                <path id="패스_583" d="M131.559 69.964h-10.1a.57.57 0 0 1-.474-.271l-5.014-8.74a.748.748 0 0 1 0-.542l5.014-8.74a.57.57 0 0 1 .474-.271h10.1a.57.57 0 0 1 .474.271l5.014 8.74a.748.748 0 0 1 0 .542l-5.014 8.74a.454.454 0 0 1-.474.271zm-9.689-1.084h9.418l4.743-8.2-4.743-8.2h-9.418l-4.743 8.2z" class="cls-1" data-name="패스 583" transform="translate(-75.663 -16.508)"/>
                <path id="패스_584" d="M89.445 70H79.35a.57.57 0 0 1-.474-.271.748.748 0 0 1 0-.542l10.1-17.412a.57.57 0 0 1 .949 0l5.014 8.74a.748.748 0 0 1 0 .542l-5.02 8.743a.615.615 0 0 1-.474.2zM80.3 68.92h8.808l4.743-8.2-4.4-7.656z" class="cls-3" data-name="패스 584" transform="translate(-63.699 -16.548)"/>
                <path id="패스_585" d="M76.964 69.964a.57.57 0 0 1-.474-.271l-5.014-8.74a.748.748 0 0 1 0-.542l5.014-8.74a.57.57 0 0 1 .474-.271h10.1a.57.57 0 0 1 .474.271.748.748 0 0 1 0 .542l-10.1 17.48a.454.454 0 0 1-.474.271zm-4.4-9.282l4.4 7.656 9.146-15.786H77.3z" class="cls-4" data-name="패스 585" transform="translate(-61.313 -16.508)"/>
                <path id="패스_586" d="M72.191 18.5H62.164a.57.57 0 0 1-.474-.271l-5.014-8.74a.748.748 0 0 1 0-.542L61.689.2a.774.774 0 0 1 .474-.2h10.1a.57.57 0 0 1 .474.271l5.014 8.74a.748.748 0 0 1 0 .542l-5.014 8.74a.769.769 0 0 1-.546.207zm-9.756-1.084h9.418l4.743-8.2-4.743-8.2h-9.418l-4.743 8.2z" class="cls-2" data-name="패스 586" transform="translate(-56.54 .068)"/>
                <path id="패스_587" d="M146.459 44.264h-10.1a.57.57 0 0 1-.474-.271l-5.014-8.74a.748.748 0 0 1 0-.542l5.014-8.74a.57.57 0 0 1 .474-.271h10.1a.57.57 0 0 1 .474.271l5.014 8.74a.748.748 0 0 1 0 .542l-5.014 8.74a.57.57 0 0 1-.474.271zM136.7 43.18h9.418l4.743-8.2-4.743-8.2H136.7l-4.743 8.2z" class="cls-1" data-name="패스 587" transform="translate(-80.468 -8.22)"/>
                <path id="패스_588" d="M116.759 44.264h-10.1a.57.57 0 0 1-.474-.271l-5.014-8.74a.748.748 0 0 1 0-.542l5.014-8.74a.57.57 0 0 1 .474-.271h10.1a.57.57 0 0 1 .474.271l5.014 8.74a.748.748 0 0 1 0 .542l-5.014 8.74a.686.686 0 0 1-.474.271zM107 43.18h9.418l4.743-8.2-4.743-8.2H107l-4.743 8.2z" class="cls-4" data-name="패스 588" transform="translate(-70.891 -8.22)"/>
                <path id="패스_589" d="M87.059 44.264h-10.1a.57.57 0 0 1-.474-.271l-5.014-8.74a.748.748 0 0 1 0-.542l5.014-8.74a.57.57 0 0 1 .474-.271h10.1a.57.57 0 0 1 .474.271l5.014 8.74a.748.748 0 0 1 0 .542l-5.014 8.74a.686.686 0 0 1-.474.271zM77.3 43.18h9.42l4.743-8.2-4.743-8.2H77.3l-4.743 8.2z" class="cls-4" data-name="패스 589" transform="translate(-61.313 -8.22)"/>
                <path id="패스_590" d="M133.945 18.464h-10.1a.57.57 0 0 1-.474-.271.748.748 0 0 1 0-.542l4.878-8.469-4.873-8.469a.748.748 0 0 1 0-.542.57.57 0 0 1 .474-.271h10.1a.57.57 0 0 1 .474.271l5.014 8.74a.748.748 0 0 1 0 .542l-5.014 8.74a.454.454 0 0 1-.479.271zm-9.079-1.084h8.808l4.743-8.2-4.743-8.2h-8.808l4.539 7.927a.748.748 0 0 1 0 .542z" class="cls-3" data-name="패스 590" transform="translate(-78.05 .1)"/>
                <path id="패스_591" d="M119.145 22.632h-10.1a.57.57 0 0 1-.474-.271.748.748 0 0 1 0-.542l5.014-8.74a.57.57 0 0 1 .949 0l5.014 8.74a.748.748 0 0 1 0 .542.372.372 0 0 1-.403.271zM110 21.548h8.2l-4.068-7.048z" class="cls-1" data-name="패스 591" transform="translate(-73.277 -4.068)"/>
                <path id="패스_592" d="M114.164 9.824a.57.57 0 0 1-.474-.271l-5.014-8.74a.748.748 0 0 1 0-.542.57.57 0 0 1 .474-.271h10.1a.57.57 0 0 1 .474.271.748.748 0 0 1 0 .542l-5.014 8.74c-.21.136-.343.271-.546.271zm-4.133-8.74L114.1 8.13l4.065-7.046h-8.13z" class="cls-1" data-name="패스 592" transform="translate(-73.309 .068)"/>
                <path id="패스_593" d="M106.664 18.472a.57.57 0 0 1-.474-.271l-5.014-8.74a.748.748 0 0 1 0-.542l5.014-8.74a.57.57 0 0 1 .949 0l5.014 8.74a.748.748 0 0 1 0 .542l-5.014 8.74a.454.454 0 0 1-.475.271zm-4.4-9.214l4.4 7.656 4.4-7.656-4.4-7.656z" class="cls-4" data-name="패스 593" transform="translate(-70.891 .092)"/>
                <path id="패스_594" d="M121.564 18.464a.57.57 0 0 1-.474-.271l-5.014-8.74a.748.748 0 0 1 0-.542l5.014-8.74a.57.57 0 0 1 .474-.271.57.57 0 0 1 .474.271l5.014 8.74a.748.748 0 0 1 0 .542l-5.014 8.74a.511.511 0 0 1-.474.271zm-4.4-9.214l4.4 7.656 4.4-7.656-4.4-7.656z" class="cls-4" data-name="패스 594" transform="translate(-75.695 .1)"/>
            </g>
            <g id="그룹_176" data-name="그룹 176" transform="translate(0 67.752)">
                <path id="패스_595" d="M0 113.925V99.9h2.913v14.025H0z" data-name="패스 595" transform="translate(0 -99.9)"/>
                <path id="패스_596" d="M10.542 106.952a2.046 2.046 0 0 1 1.016-.881 2.853 2.853 0 0 1 1.355-.271 2.21 2.21 0 0 1 2.439 2.168v7.859h-2.71v-6.775c0-.881-.136-1.558-1.016-1.558s-1.016.678-1.016 1.558v6.775H7.9V106h2.71v.949z" data-name="패스 596" transform="translate(-2.548 -101.803)"/>
                <path id="패스_597" d="M24.842 106.952a2.046 2.046 0 0 1 1.016-.881 2.853 2.853 0 0 1 1.355-.271 2.21 2.21 0 0 1 2.439 2.168v7.859h-2.71v-6.775c0-.881-.136-1.558-1.016-1.558s-1.016.678-1.016 1.558v6.775H22.2V106h2.71v.949z" data-name="패스 597" transform="translate(-7.159 -101.803)"/>
                <path id="패스_598" d="M36.1 110.746c0-2.71.407-4.946 4-4.946s4 2.3 4 4.946c0 3.049-.474 5.217-4 5.217s-4-2.101-4-5.217zm5.217-.136c0-2.033-.068-3.049-1.287-3.049s-1.287 1.016-1.287 3.049c0 2.981.271 3.659 1.287 3.659s1.287-.678 1.287-3.659z" data-name="패스 598" transform="translate(-11.641 -101.803)"/>
                <path id="패스_599" d="M49.4 106.1h2.778l1.355 7.385h.067l1.423-7.385h2.71l-2.71 9.824h-2.981z" data-name="패스 599" transform="translate(-15.93 -101.899)"/>
                <path id="패스_600" d="M70.692 114.063a16.611 16.611 0 0 0 .136 1.829h-2.576l-.135-1.287h-.068a2.712 2.712 0 0 1-2.575 1.491c-1.9 0-2.575-1.423-2.575-3.117 0-3.252 2.507-3.388 5.081-3.32v-.745c0-.813-.136-1.423-1.084-1.423s-1.016.745-1.016 1.491h-2.71a2.562 2.562 0 0 1 1.016-2.371 4.156 4.156 0 0 1 2.575-.61c3.455 0 3.93 1.491 3.93 3.252zm-5.014-1.22c0 .678.135 1.558 1.016 1.558 1.626 0 1.355-2.168 1.355-3.252-1.355 0-2.371-.068-2.371 1.694z" data-name="패스 600" transform="translate(-20.284 -101.867)"/>
                <path id="패스_601" d="M76.168 104.778h1.084v-1.558l2.71-1.22v2.778h1.423v1.694h-1.423v5.217c0 .745 0 1.22.881 1.22a1 1 0 0 0 .474-.068v1.694a7.836 7.836 0 0 1-1.423.068c-2.371 0-2.71-1.558-2.71-2.168V106.4H76.1v-1.626z" data-name="패스 601" transform="translate(-24.54 -100.577)"/>
                <path id="패스_602" d="M88.81 99.9v2.168H86.1V99.9zm0 14.025H86.1V104.1h2.71z" data-name="패스 602" transform="translate(-27.765 -99.9)"/>
                <path id="패스_603" d="M93.4 110.746c0-2.71.407-4.946 4-4.946s4 2.3 4 4.946c0 3.049-.474 5.217-4 5.217s-4-2.101-4-5.217zm5.217-.136c0-2.033-.068-3.049-1.287-3.049s-1.287 1.016-1.287 3.049c0 2.981.271 3.659 1.287 3.659s1.287-.678 1.287-3.659z" data-name="패스 603" transform="translate(-30.119 -101.803)"/>
                <path id="패스_604" d="M110.842 106.952a2.046 2.046 0 0 1 1.016-.881 2.853 2.853 0 0 1 1.355-.271 2.21 2.21 0 0 1 2.439 2.168v7.859h-2.71v-6.775c0-.881-.136-1.558-1.016-1.558s-1.016.678-1.016 1.558v6.775h-2.71V106h2.71v.949z" data-name="패스 604" transform="translate(-34.892 -101.803)"/>
                <path id="패스_605" d="M127.3 113.925l3.862-14.025h3.862l3.794 14.025H135.7l-.745-3.117h-4l-.813 3.117zm5.691-11.382l-1.355 6.03h2.778z" data-name="패스 605" transform="translate(-41.051 -99.9)"/>
                <path id="패스_606" d="M151.117 109.459c0-1.423-.339-1.965-1.22-1.965-1.152 0-1.287 1.016-1.287 3.049 0 2.981.271 3.659 1.287 3.659.881 0 1.287-.745 1.287-2.033h2.71c0 2.642-1.423 3.794-4 3.794-3.523 0-4-2.168-4-5.217 0-2.71.407-4.946 4-4.946 2.507 0 3.93 1.152 3.93 3.659z" data-name="패스 606" transform="translate(-47.049 -101.803)"/>
                <path id="패스_607" d="M167.824 114.063a16.6 16.6 0 0 0 .135 1.829h-2.507l-.135-1.287h-.068a2.712 2.712 0 0 1-2.575 1.491c-1.9 0-2.575-1.423-2.575-3.117 0-3.252 2.507-3.388 5.081-3.32v-.745c0-.813-.136-1.423-1.084-1.423s-1.016.745-1.016 1.491h-2.71a2.562 2.562 0 0 1 1.016-2.371 4.156 4.156 0 0 1 2.575-.61c3.455 0 3.93 1.491 3.93 3.252v4.81zm-5.014-1.22c0 .678.136 1.558 1.016 1.558 1.626 0 1.355-2.168 1.355-3.252-1.355 0-2.371-.068-2.371 1.694z" data-name="패스 607" transform="translate(-51.629 -101.867)"/>
                <path id="패스_608" d="M179.681 113.957v-1.084h-.068a2.33 2.33 0 0 1-2.3 1.287c-2.846 0-2.71-3.117-2.71-5.149 0-1.965-.068-5.014 2.71-5.014a2.3 2.3 0 0 1 2.236 1.152h.068V100h2.71v14.025h-2.642zm-.136-5.014c0-1.965 0-3.32-1.084-3.32-1.152 0-1.152 1.355-1.152 3.32 0 2.439.2 3.523 1.152 3.523.881-.066 1.084-1.084 1.084-3.523z" data-name="패스 608" transform="translate(-56.304 -99.932)"/>
                <path id="패스_609" d="M191.578 111.388c0 1.152.068 2.913 1.22 2.913.949 0 1.152-.949 1.152-1.762h2.778a3.877 3.877 0 0 1-1.016 2.575 4.065 4.065 0 0 1-2.913.949c-3.523 0-4-2.168-4-5.217 0-2.71.406-4.946 4-4.946 3.659 0 4.065 2.371 4 5.556h-5.217zm2.507-1.558c0-.949.068-2.3-1.287-2.3-1.287 0-1.22 1.491-1.22 2.3z" data-name="패스 609" transform="translate(-60.884 -101.835)"/>
                <path id="패스_610" d="M206.042 106.952a2.5 2.5 0 0 1 2.371-1.152 2.423 2.423 0 0 1 2.168 1.22 2.822 2.822 0 0 1 2.575-1.22 2.21 2.21 0 0 1 2.439 2.168v7.859h-2.71v-6.775c0-.881-.136-1.558-1.016-1.558s-1.016.678-1.016 1.558v6.775h-2.71v-6.775c0-.881-.135-1.558-1.016-1.558s-1.016.678-1.016 1.558v6.775H203.4V106h2.71v.949z" data-name="패스 610" transform="translate(-65.592 -101.803)"/>
                <path id="패스_611" d="M225.542 115.992L222.9 106.1h2.71l1.423 6.911h.068l1.491-6.911h2.642l-3.794 13.483h-2.846z" data-name="패스 611" transform="translate(-71.88 -101.899)"/>
            </g>
        </g>
        <path id="사각형_3293" d="M0 0h256v138H0z" class="cls-5" data-name="사각형 3293" transform="translate(0 -.053)"/>
    </g>
</svg>
