<svg xmlns="http://www.w3.org/2000/svg" width="378" height="200" viewBox="0 0 378 200">
    <defs>
        <style>
            .cls-1{fill:#0081cc}.cls-2{fill:#0062b1}.cls-3{fill:#009ce5}.cls-4{fill:#004098}.cls-5{fill:none}
        </style>
    </defs>
    <g id="img_about_logo_primary" transform="translate(-392 -3070)">
        <g id="그룹_182" data-name="그룹 182" transform="translate(463.8 3108)">
            <g id="그룹_180" data-name="그룹 180">
                <g id="그룹_179" data-name="그룹 179">
                    <g id="그룹_178" data-name="그룹 178">
                        <path id="패스_612" d="M94.5 51.5h14.8l-7.4-12.9z" class="cls-1" data-name="패스 612"/>
                        <path id="패스_613" d="M168.8 51.5l-7.4-12.9-7.5 12.9z" class="cls-2" data-name="패스 613"/>
                        <path id="패스_614" d="M139.1 51.5l7.4 12.9 7.4-12.9h-14.8z" class="cls-2" data-name="패스 614"/>
                        <path id="패스_615" d="M124.2 25.7l7.4 12.9 7.5-12.9z" class="cls-1" data-name="패스 615"/>
                        <path id="패스_616" d="M131.6 38.6l-7.4 12.9h14.9z" class="cls-1" data-name="패스 616"/>
                        <path id="패스_617" d="M94.5 25.7h14.8l-7.4-12.8L109.3 0H94.5L87 12.9z" class="cls-3" data-name="패스 617"/>
                        <path id="패스_618" d="M109.3 25.7H94.5l7.4 12.9z" class="cls-1" data-name="패스 618"/>
                        <path id="패스_619" d="M176.2 64.4l-7.4-12.9h-14.9l-7.4 12.9 7.4 12.8h14.9l3.7-6.4z" class="cls-4" data-name="패스 619"/>
                        <path id="패스_620" d="M139.1 51.5h-14.9l-7.4 12.9 7.4 12.8h14.9l7.4-12.8z" class="cls-4" data-name="패스 620"/>
                        <path id="패스_621" d="M79.6 77.2h14.9l7.4-12.8-7.4-12.9z" class="cls-2" data-name="패스 621"/>
                        <path id="패스_622" d="M94.5 51.5H79.6l-7.4 12.9 7.4 12.8z" class="cls-1" data-name="패스 622"/>
                        <path id="패스_623" d="M153.9 51.5l7.5-12.9-7.5-12.9h-14.8l-7.5 12.9 7.5 12.9z" class="cls-4" data-name="패스 623"/>
                        <path id="패스_624" d="M124.2 51.5l7.4-12.9-7.4-12.9h-14.9l-7.4 12.9 7.4 12.9z" class="cls-2" data-name="패스 624"/>
                        <path id="패스_625" d="M94.5 51.5l7.4-12.9-7.4-12.9H79.6l-7.4 12.9 7.4 12.9z" class="cls-3" data-name="패스 625"/>
                        <path id="패스_626" d="M124.2 25.7h14.9l7.4-12.8L139.1 0h-14.9l7.4 12.9z" class="cls-2" data-name="패스 626"/>
                        <path id="패스_627" d="M109.3 25.7h14.9l-7.4-12.8z" class="cls-1" data-name="패스 627"/>
                        <path id="패스_628" d="M124.2 0h-14.9l7.5 12.9z" class="cls-3" data-name="패스 628"/>
                        <path id="패스_629" d="M109.3 25.7l7.5-12.8L109.3 0l-7.4 12.9z" class="cls-1" data-name="패스 629"/>
                        <path id="패스_630" d="M116.8 12.9l7.4 12.8 7.4-12.8L124.2 0z" class="cls-1" data-name="패스 630"/>
                        <path id="패스_631" d="M79.6 25.7L87 12.9 79.6 0H64.7l-7.4 12.9 7.4 12.8z" class="cls-3" data-name="패스 631"/>
                        <path id="패스_632" d="M168.8 25.7l7.4-12.8L168.8 0h-14.9l-7.4 12.9 7.4 12.8z" class="cls-4" data-name="패스 632"/>
                    </g>
                    <path id="패스_633" d="M72.2 38.6l-7.5 12.9h14.9z" class="cls-1" data-name="패스 633"/>
                    <path id="패스_634" d="M79.6 51.5H64.7l-7.4 12.9 7.4 12.8h14.9l-7.4-12.8z" class="cls-3" data-name="패스 634"/>
                    <path id="패스_635" d="M146.5 12.9l-7.4 12.8h14.8z" class="cls-1" data-name="패스 635"/>
                    <path id="패스_636" d="M153.9 25.7h14.9l-7.4 12.9z" class="cls-2" data-name="패스 636"/>
                    <path id="패스_637" d="M87 12.9l-7.4 12.8h14.9z" class="cls-1" data-name="패스 637"/>
                    <path id="패스_638" d="M64.7 25.7h14.9l-7.4 12.9z" class="cls-1" data-name="패스 638"/>
                </g>
            </g>
            <g id="그룹_181" data-name="그룹 181">
                <path id="패스_639" d="M0 119.8V99.1h4.3v20.7z" data-name="패스 639"/>
                <path id="패스_640" d="M11.8 106.7a3.02 3.02 0 0 1 1.5-1.3 4.211 4.211 0 0 1 2-.4c1.9 0 3.6 1.1 3.6 3.2v11.6h-4v-10c0-1.3-.2-2.3-1.5-2.3s-1.5 1-1.5 2.3v10h-4v-14.5h4v1.4z" data-name="패스 640"/>
                <path id="패스_641" d="M26.1 106.7a3.02 3.02 0 0 1 1.5-1.3 4.211 4.211 0 0 1 2-.4c1.9 0 3.6 1.1 3.6 3.2v11.6h-4v-10c0-1.3-.2-2.3-1.5-2.3s-1.5 1-1.5 2.3v10h-4v-14.5h4v1.4z" data-name="패스 641"/>
                <path id="패스_642" d="M36.1 112.3c0-4 .6-7.3 5.9-7.3s5.9 3.4 5.9 7.3c0 4.5-.7 7.7-5.9 7.7s-5.9-3.1-5.9-7.7zm7.7-.2c0-3-.1-4.5-1.9-4.5s-1.9 1.5-1.9 4.5c0 4.4.4 5.4 1.9 5.4s1.9-1 1.9-5.4z" data-name="패스 642"/>
                <path id="패스_643" d="M49.4 105.3h4.1l2 10.9h.1l2.1-10.9h4l-4 14.5h-4.4z" data-name="패스 643"/>
                <path id="패스_644" d="M74.4 117.1a24.519 24.519 0 0 0 .2 2.7h-3.8l-.2-1.9h-.1a4 4 0 0 1-3.8 2.2c-2.8 0-3.8-2.1-3.8-4.6 0-4.8 3.7-5 7.5-4.9v-1.1c0-1.2-.2-2.1-1.6-2.1s-1.5 1.1-1.5 2.2h-4c0-1.7.5-2.9 1.5-3.5a6.135 6.135 0 0 1 3.8-.9c5.1 0 5.8 2.2 5.8 4.8zm-7.4-1.8c0 1 .2 2.3 1.5 2.3 2.4 0 2-3.2 2-4.8-2 .1-3.5-.1-3.5 2.5z" data-name="패스 644"/>
                <path id="패스_645" d="M76.2 105.3h1.6V103l4-1.8v4.1h2.1v2.5h-2.1v7.7c0 1.1 0 1.8 1.3 1.8a1.483 1.483 0 0 0 .7-.1v2.5a11.567 11.567 0 0 1-2.1.1c-3.5 0-4-2.3-4-3.2v-8.9h-1.6v-2.4z" data-name="패스 645"/>
                <path id="패스_646" d="M90.1 99.1v3.2h-4v-3.2zm0 20.7h-4v-14.5h4z" data-name="패스 646"/>
                <path id="패스_647" d="M93.4 112.3c0-4 .6-7.3 5.9-7.3s5.9 3.4 5.9 7.3c0 4.5-.7 7.7-5.9 7.7s-5.9-3.1-5.9-7.7zm7.7-.2c0-3-.1-4.5-1.9-4.5s-1.9 1.5-1.9 4.5c0 4.4.4 5.4 1.9 5.4s1.9-1 1.9-5.4z" data-name="패스 647"/>
                <path id="패스_648" d="M112.1 106.7a3.02 3.02 0 0 1 1.5-1.3 4.211 4.211 0 0 1 2-.4c1.9 0 3.6 1.1 3.6 3.2v11.6h-4v-10c0-1.3-.2-2.3-1.5-2.3s-1.5 1-1.5 2.3v10h-4v-14.5h4v1.4z" data-name="패스 648"/>
                <path id="패스_649" d="M127.3 119.8l5.7-20.7h5.7l5.6 20.7h-4.6l-1.1-4.6h-5.9l-1.2 4.6zm8.4-16.7l-2 8.9h4.1z" data-name="패스 649"/>
                <path id="패스_650" d="M153.6 110.4c0-2.1-.5-2.9-1.8-2.9-1.7 0-1.9 1.5-1.9 4.5 0 4.4.4 5.4 1.9 5.4 1.3 0 1.9-1.1 1.9-3h4c0 3.9-2.1 5.6-5.9 5.6-5.2 0-5.9-3.2-5.9-7.7 0-4 .6-7.3 5.9-7.3 3.7 0 5.8 1.7 5.8 5.4z" data-name="패스 650"/>
                <path id="패스_651" d="M171.5 117.1a24.521 24.521 0 0 0 .2 2.7H168l-.2-1.9h-.1a4 4 0 0 1-3.8 2.2c-2.8 0-3.8-2.1-3.8-4.6 0-4.8 3.7-5 7.5-4.9v-1.1c0-1.2-.2-2.1-1.6-2.1s-1.5 1.1-1.5 2.2h-4c0-1.7.5-2.9 1.5-3.5a6.135 6.135 0 0 1 3.8-.9c5.1 0 5.8 2.2 5.8 4.8v7.1zm-7.4-1.8c0 1 .2 2.3 1.5 2.3 2.4 0 2-3.2 2-4.8-2 .1-3.5-.1-3.5 2.5z" data-name="패스 651"/>
                <path id="패스_652" d="M182.1 119.8v-1.6h-.1a3.438 3.438 0 0 1-3.4 1.9c-4.2 0-4-4.6-4-7.6 0-2.9-.1-7.4 4-7.4a3.388 3.388 0 0 1 3.3 1.7h.1v-7.6h4v20.7h-3.9zm-.2-7.4c0-2.9 0-4.9-1.6-4.9-1.7 0-1.7 2-1.7 4.9 0 3.6.3 5.2 1.7 5.2 1.3 0 1.6-1.6 1.6-5.2z" data-name="패스 652"/>
                <path id="패스_653" d="M192.9 113.2c0 1.7.1 4.3 1.8 4.3 1.4 0 1.7-1.4 1.7-2.6h4.1a5.722 5.722 0 0 1-1.5 3.8 6 6 0 0 1-4.3 1.4c-5.2 0-5.9-3.2-5.9-7.7 0-4 .6-7.3 5.9-7.3 5.4 0 6 3.5 5.9 8.2h-7.7zm3.7-2.3c0-1.4.1-3.4-1.9-3.4-1.9 0-1.8 2.2-1.8 3.4z" data-name="패스 653"/>
                <path id="패스_654" d="M207.3 106.7a3.7 3.7 0 0 1 3.5-1.7 3.576 3.576 0 0 1 3.2 1.8 4.166 4.166 0 0 1 3.8-1.8c1.9 0 3.6 1.1 3.6 3.2v11.6h-4v-10c0-1.3-.2-2.3-1.5-2.3s-1.5 1-1.5 2.3v10h-4v-10c0-1.3-.2-2.3-1.5-2.3s-1.5 1-1.5 2.3v10h-4v-14.5h4v1.4z" data-name="패스 654"/>
                <path id="패스_655" d="M226.8 119.9l-3.9-14.6h4l2.1 10.2h.1l2.2-10.2h3.9l-5.6 19.9h-4.2z" data-name="패스 655"/>
            </g>
        </g>
        <path id="사각형_3292" d="M0 0h378v200H0z" class="cls-5" data-name="사각형 3292" transform="translate(392 3070)"/>
    </g>
</svg>
