<svg xmlns="http://www.w3.org/2000/svg" width="312" height="300" viewBox="0 0 312 300">
    <defs>
        <style>
            .cls-1,.cls-6{fill:none}.cls-1{stroke:#c9caca}.cls-2,.cls-4{font-size:12px;font-family:NotoSansKR-Medium,Noto Sans KR;font-weight:500}.cls-3{fill:#009be8}.cls-4{fill:#fff}.cls-5{fill:#0060b4}.cls-7{stroke:none}
        </style>
    </defs>
    <g id="img_mobile_about_team" transform="translate(-24 -3673)">
        <path id="패스_567" d="M2444-4923v49.189" class="cls-1" data-name="패스 567" transform="translate(-2353.824 8732.942)"/>
        <path id="패스_570" d="M2444-4923v49.189" class="cls-1" data-name="패스 570" transform="translate(-2171.176 8732.942)"/>
        <g id="사각형_3285" class="cls-1" data-name="사각형 3285">
            <path d="M0 0h88v32H0z" class="cls-7" transform="translate(135 3682)"/>
            <path d="M.5.5h87v31H.5z" class="cls-6" transform="translate(135 3682)"/>
        </g>
        <g id="사각형_3305" class="cls-1" data-name="사각형 3305">
            <path d="M0 0h88v32H0z" class="cls-7" transform="translate(46.5 3859)"/>
            <path d="M.5.5h87v31H.5z" class="cls-6" transform="translate(46.5 3859)"/>
        </g>
        <g id="사각형_3309" class="cls-1" data-name="사각형 3309">
            <path d="M0 0h88v32H0z" class="cls-7" transform="translate(228.5 3859)"/>
            <path d="M.5.5h87v31H.5z" class="cls-6" transform="translate(228.5 3859)"/>
        </g>
        <g id="사각형_3306" class="cls-1" data-name="사각형 3306">
            <path d="M0 0h88v32H0z" class="cls-7" transform="translate(46.5 3896)"/>
            <path d="M.5.5h87v31H.5z" class="cls-6" transform="translate(46.5 3896)"/>
        </g>
        <g id="사각형_3310" class="cls-1" data-name="사각형 3310">
            <path d="M0 0h88v32H0z" class="cls-7" transform="translate(228.5 3896)"/>
            <path d="M.5.5h87v31H.5z" class="cls-6" transform="translate(228.5 3896)"/>
        </g>
        <g id="사각형_3307" class="cls-1" data-name="사각형 3307">
            <path d="M0 0h88v32H0z" class="cls-7" transform="translate(46.5 3933)"/>
            <path d="M.5.5h87v31H.5z" class="cls-6" transform="translate(46.5 3933)"/>
        </g>
        <g id="사각형_3308" class="cls-1" data-name="사각형 3308">
            <path d="M0 0h88v32H0z" class="cls-7" transform="translate(228.5 3933)"/>
            <path d="M.5.5h87v31H.5z" class="cls-6" transform="translate(228.5 3933)"/>
        </g>
        <g id="사각형_3303" class="cls-1" data-name="사각형 3303">
            <path d="M0 0h88v32H0z" class="cls-7" transform="translate(228 3682)"/>
            <path d="M.5.5h87v31H.5z" class="cls-6" transform="translate(228 3682)"/>
        </g>
        <text id="이사회" class="cls-2" transform="translate(179 3703)">
            <tspan x="-16.56" y="0">이사회</tspan>
        </text>
        <text id="경영_지원팀" class="cls-2" data-name="경영 지원팀" transform="translate(90.5 3880)">
            <tspan x="-28.95" y="0">경영 지원팀</tspan>
        </text>
        <text id="멘토단" class="cls-2" transform="translate(272.5 3880)">
            <tspan x="-16.56" y="0">멘토단</tspan>
        </text>
        <text id="대외_협력팀" class="cls-2" data-name="대외 협력팀" transform="translate(90.5 3917)">
            <tspan x="-28.95" y="0">대외 협력팀</tspan>
        </text>
        <text id="교육_기획팀" class="cls-2" data-name="교육 기획팀" transform="translate(272.5 3917)">
            <tspan x="-28.95" y="0">교육 기획팀</tspan>
        </text>
        <text id="시설_관리팀" class="cls-2" data-name="시설 관리팀" transform="translate(90.5 3954)">
            <tspan x="-28.95" y="0">시설 관리팀</tspan>
        </text>
        <text id="교육_운영팀" class="cls-2" data-name="교육 운영팀" transform="translate(272.5 3954)">
            <tspan x="-28.95" y="0">교육 운영팀</tspan>
        </text>
        <text id="감사" class="cls-2" transform="translate(270 3703)">
            <tspan x="-11.04" y="0">감사</tspan>
        </text>
        <path id="사각형_88" d="M0 0h88v32H0z" class="cls-3" data-name="사각형 88" transform="translate(46.5 3805)"/>
        <path id="사각형_3304" d="M0 0h88v32H0z" class="cls-3" data-name="사각형 3304" transform="translate(228.5 3805)"/>
        <text id="사무국장" class="cls-4" transform="translate(90.5 3826)">
            <tspan x="-22.08" y="0">사무국장</tspan>
        </text>
        <text id="교육부학장" class="cls-4" transform="translate(272.5 3826)">
            <tspan x="-27.6" y="0">교육부학장</tspan>
        </text>
        <path id="패스_565" d="M2204-4848.866v-25.392h182v25.392" class="cls-1" data-name="패스 565" transform="translate(-2113.5 8653.867)"/>
        <path id="패스_566" d="M2444-4923v65.609" class="cls-1" data-name="패스 566" transform="translate(-2263 8637)"/>
        <path id="사각형_87" d="M0 0h88v32H0z" class="cls-5" data-name="사각형 87" transform="translate(135 3729)"/>
        <text id="학장" class="cls-4" transform="translate(179 3750)">
            <tspan x="-11.04" y="0">학장</tspan>
        </text>
        <path id="사각형_3311" d="M0 0h312v300H0z" class="cls-6" data-name="사각형 3311" transform="translate(24 3673)"/>
    </g>
</svg>
