<svg xmlns="http://www.w3.org/2000/svg" width="256" height="206" viewBox="0 0 256 206">
    <defs>
        <style>
            .cls-1,.cls-3{fill:none}.cls-1{opacity:.5}.cls-2{fill:#bae5fd}.cls-4,.cls-5{stroke:none}.cls-5{fill:#c9caca}
        </style>
    </defs>
    <g id="img_mobile_main" transform="translate(-80 -236)">
        <g id="패스_699" class="cls-1" data-name="패스 699">
            <path d="M288.955 246.243l17.286-29.94-17.287-29.94h-34.571L237.1 216.3l17.286 29.94z" class="cls-4" transform="translate(-107.907 62.004)"/>
            <path d="M288.378 245.243l16.709-28.94-16.71-28.94H254.96l-16.709 28.94 16.709 28.94h33.418m.577 1h-34.572l-17.286-29.94 17.286-29.94h34.572l17.286 29.94-17.286 29.94z" class="cls-5" transform="translate(-107.907 62.004)"/>
        </g>
        <g id="패스_700" class="cls-1" data-name="패스 700">
            <path d="M288.955 246.243l17.286-29.94-17.287-29.94h-34.571L237.1 216.3l17.286 29.94z" class="cls-4" transform="translate(-73.588 121.927)"/>
            <path d="M288.378 245.243l16.709-28.94-16.71-28.94H254.96l-16.709 28.94 16.709 28.94h33.418m.577 1h-34.572l-17.286-29.94 17.286-29.94h34.572l17.286 29.94-17.286 29.94z" class="cls-5" transform="translate(-73.588 121.927)"/>
        </g>
        <g id="패스_701" class="cls-1" data-name="패스 701">
            <path d="M288.955 246.243l17.286-29.94-17.287-29.94h-34.571L237.1 216.3l17.286 29.94z" class="cls-4" transform="translate(-38.954 181.379)"/>
            <path d="M288.378 245.243l16.709-28.94-16.71-28.94H254.96l-16.709 28.94 16.709 28.94h33.418m.577 1h-34.572l-17.286-29.94 17.286-29.94h34.572l17.286 29.94-17.286 29.94z" class="cls-5" transform="translate(-38.954 181.379)"/>
        </g>
        <path id="패스_707" d="M288.955 246.243l17.286-29.94-17.287-29.94h-34.571L237.1 216.3l17.286 29.94z" class="cls-2" data-name="패스 707" transform="translate(-38.906 181.379)"/>
        <path id="패스_702" d="M288.955 246.243l17.286-29.94-17.287-29.94h-34.571L237.1 216.3l17.286 29.94z" class="cls-2" data-name="패스 702" transform="translate(29.759 62.004)"/>
        <g id="패스_703" class="cls-1" data-name="패스 703">
            <path d="M288.955 246.243l17.286-29.94-17.287-29.94h-34.571L237.1 216.3l17.286 29.94z" class="cls-4" transform="translate(-4.561 121.927)"/>
            <path d="M288.378 245.243l16.709-28.94-16.71-28.94H254.96l-16.709 28.94 16.709 28.94h33.418m.577 1h-34.572l-17.286-29.94 17.286-29.94h34.572l17.286 29.94-17.286 29.94z" class="cls-5" transform="translate(-4.561 121.927)"/>
        </g>
        <g id="패스_704" class="cls-1" data-name="패스 704">
            <path d="M288.955 246.243l17.286-29.94-17.287-29.94h-34.571L237.1 216.3l17.286 29.94z" class="cls-4" transform="translate(29.759 181.379)"/>
            <path d="M288.378 245.243l16.709-28.94-16.71-28.94H254.96l-16.709 28.94 16.709 28.94h33.418m.577 1h-34.572l-17.286-29.94 17.286-29.94h34.572l17.286 29.94-17.286 29.94z" class="cls-5" transform="translate(29.759 181.379)"/>
        </g>
        <path id="사각형_3319" d="M0 0h256v206H0z" class="cls-3" data-name="사각형 3319" transform="translate(80 236)"/>
    </g>
</svg>
