<svg xmlns="http://www.w3.org/2000/svg" width="378" height="200" viewBox="0 0 378 200">
    <defs>
        <style>
            .cls-1{fill:#404040}.cls-2{fill:#8c8c8c}.cls-3{fill:#b3b3b3}.cls-4{fill:#1a1a1a}.cls-5{fill:none}
        </style>
    </defs>
    <g id="img_about_logo_variation" transform="translate(-902 -3070)">
        <g id="그룹_177" data-name="그룹 177" transform="translate(973 3107.1)">
            <g id="그룹_175" data-name="그룹 175">
                <path id="패스_571" d="M72.2 40.2a.842.842 0 0 1-.7-.4L56.6 14.1a.806.806 0 1 1 1.4-.8l7.2 12.5h14.4a.842.842 0 0 1 .7.4 1.1 1.1 0 0 1 0 .8l-7.4 12.9a.908.908 0 0 1-.7.3zm-6-12.9l6 10.4 6-10.4h-12z" class="cls-1" data-name="패스 571"/>
                <path id="패스_572" d="M109.3 53.1H94.5a.842.842 0 0 1-.7-.4 1.1 1.1 0 0 1 0-.8l7.4-12.9a.841.841 0 0 1 1.4 0l7.4 12.9a1.1 1.1 0 0 1 0 .8.842.842 0 0 1-.7.4zm-13.4-1.6H108l-6-10.4z" class="cls-1" data-name="패스 572"/>
                <path id="패스_573" d="M79.6 78.8H64.8a.842.842 0 0 1-.7-.4l-7.4-12.9a1.1 1.1 0 0 1 0-.8L71.5 39a.841.841 0 0 1 1.4 0l7.4 12.9a1.1 1.1 0 0 1 0 .8l-7.2 12.5 7.2 12.5a1.1 1.1 0 0 1 0 .8.779.779 0 0 1-.7.3zm-14.4-1.6h13l-6.7-11.7a1.1 1.1 0 0 1 0-.8l7.2-12.5L72.2 41 58.3 65.1z" class="cls-1" data-name="패스 573"/>
                <path id="패스_574" d="M161.3 40.2a.842.842 0 0 1-.7-.4l-7.2-12.5H139a.842.842 0 0 1-.7-.4 1.1 1.1 0 0 1 0-.8L153.2.4a.842.842 0 0 1 .7-.4h14.9a.842.842 0 0 1 .7.4l7.4 12.9a1.1 1.1 0 0 1 0 .8L162 39.8a.67.67 0 0 1-.7.4zm-20.9-14.5h13.5a.842.842 0 0 1 .7.4l6.7 11.7 13.9-24.1-7-12.1h-13.9z" class="cls-2" data-name="패스 574"/>
                <path id="패스_575" d="M168.8 53.1h-14.9a.842.842 0 0 1-.7-.4 1.1 1.1 0 0 1 0-.8l7.4-12.9a.841.841 0 0 1 1.4 0l7.4 12.9a1.1 1.1 0 0 1 0 .8.675.675 0 0 1-.6.4zm-13.5-1.6h12.1l-6-10.4z" class="cls-2" data-name="패스 575"/>
                <path id="패스_576" d="M146.5 65.9a.842.842 0 0 1-.7-.4l-7.4-12.9a1.1 1.1 0 0 1 0-.8.842.842 0 0 1 .7-.4H154a.842.842 0 0 1 .7.4 1.1 1.1 0 0 1 0 .8l-7.4 12.9a1.033 1.033 0 0 1-.8.4zm-6.1-12.8l6 10.4 6-10.4z" class="cls-2" data-name="패스 576"/>
                <path id="패스_577" d="M131.6 40.2a.842.842 0 0 1-.7-.4l-7.4-12.9a1.1 1.1 0 0 1 0-.8.842.842 0 0 1 .7-.4H139a.842.842 0 0 1 .7.4 1.1 1.1 0 0 1 0 .8l-7.4 12.9a.67.67 0 0 1-.7.4zm-6-12.9l6 10.4 6-10.4h-12z" class="cls-2" data-name="패스 577"/>
                <path id="패스_578" d="M139 53.1h-14.9a.842.842 0 0 1-.7-.4 1.1 1.1 0 0 1 0-.8l7.4-12.9a.841.841 0 0 1 1.4 0l7.4 12.9a1.1 1.1 0 0 1 0 .8c0 .2-.3.4-.6.4zm-13.4-1.6h12.1l-6-10.4z" class="cls-2" data-name="패스 578"/>
                <path id="패스_579" d="M109.3 27.3H94.5a.842.842 0 0 1-.7-.4L86.4 14a1.1 1.1 0 0 1 0-.8L93.8.3a1.143 1.143 0 0 1 .7-.3h14.9a.842.842 0 0 1 .7.4 1.1 1.1 0 0 1 0 .8l-7.2 12.5 7.2 12.5a1.1 1.1 0 0 1 0 .8 1.135 1.135 0 0 1-.8.3zm-14.4-1.6h13L101.2 14a1.1 1.1 0 0 1 0-.8l6.7-11.7h-13l-7 12.1z" class="cls-3" data-name="패스 579"/>
                <path id="패스_580" d="M94.5 27.3H79.6a.842.842 0 0 1-.7-.4 1.1 1.1 0 0 1 0-.8l7.4-12.9a.842.842 0 0 1 .7-.4.842.842 0 0 1 .7.4l7.4 12.9a1.1 1.1 0 0 1 0 .8.548.548 0 0 1-.6.4zM81 25.7h12.1l-6-10.4z" class="cls-1" data-name="패스 580"/>
                <path id="패스_581" d="M101.9 40.2a.842.842 0 0 1-.7-.4l-7.4-12.9a1.1 1.1 0 0 1 0-.8.842.842 0 0 1 .7-.4h14.9a.842.842 0 0 1 .7.4 1.1 1.1 0 0 1 0 .8l-7.4 12.9a.909.909 0 0 1-.8.4zm-6-12.9l6 10.4 6-10.4h-12z" class="cls-1" data-name="패스 581"/>
                <path id="패스_582" d="M168.8 78.8h-14.9a.842.842 0 0 1-.7-.4l-7.4-12.9a1.1 1.1 0 0 1 0-.8l7.4-12.9a.842.842 0 0 1 .7-.4h14.9a.842.842 0 0 1 .7.4l7.4 12.9a1.1 1.1 0 0 1 0 .8l-7.4 12.9a.755.755 0 0 1-.7.4zm-14.4-1.6h13.9l7-12.1-7-12.1h-13.9l-7 12.1z" class="cls-1" data-name="패스 582"/>
                <path id="패스_583" d="M139 78.8h-14.9a.842.842 0 0 1-.7-.4L116 65.5a1.1 1.1 0 0 1 0-.8l7.4-12.9a.842.842 0 0 1 .7-.4H139a.842.842 0 0 1 .7.4l7.4 12.9a1.1 1.1 0 0 1 0 .8l-7.4 12.9a.67.67 0 0 1-.7.4zm-14.3-1.6h13.9l7-12.1-7-12.1h-13.9l-7 12.1z" class="cls-1" data-name="패스 583"/>
                <path id="패스_584" d="M94.5 78.8H79.6a.842.842 0 0 1-.7-.4 1.1 1.1 0 0 1 0-.8l14.9-25.7a.841.841 0 0 1 1.4 0l7.4 12.9a1.1 1.1 0 0 1 0 .8l-7.4 12.9a.908.908 0 0 1-.7.3zM81 77.2h13l7-12.1-6.5-11.3z" class="cls-3" data-name="패스 584"/>
                <path id="패스_585" d="M79.6 78.8a.842.842 0 0 1-.7-.4l-7.4-12.9a1.1 1.1 0 0 1 0-.8l7.4-12.9a.842.842 0 0 1 .7-.4h14.9a.842.842 0 0 1 .7.4 1.1 1.1 0 0 1 0 .8L80.3 78.4a.67.67 0 0 1-.7.4zm-6.5-13.7l6.5 11.3 13.5-23.3h-13z" class="cls-4" data-name="패스 585"/>
                <path id="패스_586" d="M79.6 27.3H64.8a.842.842 0 0 1-.7-.4L56.7 14a1.1 1.1 0 0 1 0-.8L64.1.3a1.143 1.143 0 0 1 .7-.3h14.9a.842.842 0 0 1 .7.4l7.4 12.9a1.1 1.1 0 0 1 0 .8L80.4 27a1.136 1.136 0 0 1-.8.3zm-14.4-1.6h13.9l7-12.1-7-12.1H65.2l-7 12.1z" class="cls-2" data-name="패스 586"/>
                <path id="패스_587" d="M153.9 53.1H139a.842.842 0 0 1-.7-.4l-7.4-12.9a1.1 1.1 0 0 1 0-.8l7.4-12.9a.842.842 0 0 1 .7-.4h14.9a.842.842 0 0 1 .7.4L162 39a1.1 1.1 0 0 1 0 .8l-7.4 12.9a.842.842 0 0 1-.7.4zm-14.4-1.6h13.9l7-12.1-7-12.1h-13.9l-7 12.1z" class="cls-1" data-name="패스 587"/>
                <path id="패스_588" d="M124.2 53.1h-14.9a.842.842 0 0 1-.7-.4l-7.4-12.9a1.1 1.1 0 0 1 0-.8l7.4-12.9a.842.842 0 0 1 .7-.4h14.9a.842.842 0 0 1 .7.4l7.4 12.9a1.1 1.1 0 0 1 0 .8l-7.4 12.9a1.012 1.012 0 0 1-.7.4zm-14.4-1.6h13.9l7-12.1-7-12.1h-13.9l-7 12.1z" class="cls-4" data-name="패스 588"/>
                <path id="패스_589" d="M94.5 53.1H79.6a.842.842 0 0 1-.7-.4l-7.4-12.9a1.1 1.1 0 0 1 0-.8l7.4-12.9a.842.842 0 0 1 .7-.4h14.9a.842.842 0 0 1 .7.4l7.4 12.9a1.1 1.1 0 0 1 0 .8l-7.4 12.9a1.012 1.012 0 0 1-.7.4zm-14.4-1.6H94l7-12.1-7-12.1H80.1l-7 12.1z" class="cls-4" data-name="패스 589"/>
                <path id="패스_590" d="M139 27.3h-14.9a.842.842 0 0 1-.7-.4 1.1 1.1 0 0 1 0-.8l7.2-12.5-7.2-12.5a1.1 1.1 0 0 1 0-.8.842.842 0 0 1 .7-.4H139a.842.842 0 0 1 .7.4l7.4 12.9a1.1 1.1 0 0 1 0 .8l-7.4 12.9a.67.67 0 0 1-.7.4zm-13.4-1.6h13l7-12.1-7-12.1h-13l6.7 11.7a1.1 1.1 0 0 1 0 .8z" class="cls-3" data-name="패스 590"/>
                <path id="패스_591" d="M124.2 27.3h-14.9a.842.842 0 0 1-.7-.4 1.1 1.1 0 0 1 0-.8l7.4-12.9a.841.841 0 0 1 1.4 0l7.4 12.9a1.1 1.1 0 0 1 0 .8.548.548 0 0 1-.6.4zm-13.5-1.6h12.1l-6-10.4z" class="cls-1" data-name="패스 591"/>
                <path id="패스_592" d="M116.8 14.5a.842.842 0 0 1-.7-.4l-7.4-12.9a1.1 1.1 0 0 1 0-.8.842.842 0 0 1 .7-.4h14.9a.842.842 0 0 1 .7.4 1.1 1.1 0 0 1 0 .8l-7.4 12.9c-.3.2-.5.4-.8.4zm-6.1-12.9l6 10.4 6-10.4h-12z" class="cls-1" data-name="패스 592"/>
                <path id="패스_593" d="M109.3 27.3a.842.842 0 0 1-.7-.4L101.2 14a1.1 1.1 0 0 1 0-.8L108.6.3a.841.841 0 0 1 1.4 0l7.4 12.9a1.1 1.1 0 0 1 0 .8L110 26.9a.67.67 0 0 1-.7.4zm-6.5-13.6l6.5 11.3 6.5-11.3-6.5-11.3z" class="cls-4" data-name="패스 593"/>
                <path id="패스_594" d="M124.2 27.3a.842.842 0 0 1-.7-.4L116.1 14a1.1 1.1 0 0 1 0-.8L123.5.3a.842.842 0 0 1 .7-.4.842.842 0 0 1 .7.4l7.4 12.9a1.1 1.1 0 0 1 0 .8l-7.4 12.9a.755.755 0 0 1-.7.4zm-6.5-13.6l6.5 11.3 6.5-11.3-6.5-11.3z" class="cls-4" data-name="패스 594"/>
            </g>
            <g id="그룹_176" data-name="그룹 176">
                <path id="패스_595" d="M0 120.6V99.9h4.3v20.7H0z" data-name="패스 595"/>
                <path id="패스_596" d="M11.8 107.5a3.02 3.02 0 0 1 1.5-1.3 4.211 4.211 0 0 1 2-.4c1.9 0 3.6 1.1 3.6 3.2v11.6h-4v-10c0-1.3-.2-2.3-1.5-2.3s-1.5 1-1.5 2.3v10h-4v-14.5h4v1.4z" data-name="패스 596"/>
                <path id="패스_597" d="M26.1 107.5a3.02 3.02 0 0 1 1.5-1.3 4.211 4.211 0 0 1 2-.4c1.9 0 3.6 1.1 3.6 3.2v11.6h-4v-10c0-1.3-.2-2.3-1.5-2.3s-1.5 1-1.5 2.3v10h-4v-14.5h4v1.4z" data-name="패스 597"/>
                <path id="패스_598" d="M36.1 113.1c0-4 .6-7.3 5.9-7.3s5.9 3.4 5.9 7.3c0 4.5-.7 7.7-5.9 7.7s-5.9-3.1-5.9-7.7zm7.7-.2c0-3-.1-4.5-1.9-4.5s-1.9 1.5-1.9 4.5c0 4.4.4 5.4 1.9 5.4s1.9-1 1.9-5.4z" data-name="패스 598"/>
                <path id="패스_599" d="M49.4 106.1h4.1l2 10.9h.1l2.1-10.9h4l-4 14.5h-4.4z" data-name="패스 599"/>
                <path id="패스_600" d="M74.4 117.9a24.519 24.519 0 0 0 .2 2.7h-3.8l-.2-1.9h-.1a4 4 0 0 1-3.8 2.2c-2.8 0-3.8-2.1-3.8-4.6 0-4.8 3.7-5 7.5-4.9v-1.1c0-1.2-.2-2.1-1.6-2.1s-1.5 1.1-1.5 2.2h-4c0-1.7.5-2.9 1.5-3.5a6.135 6.135 0 0 1 3.8-.9c5.1 0 5.8 2.2 5.8 4.8zm-7.4-1.8c0 1 .2 2.3 1.5 2.3 2.4 0 2-3.2 2-4.8-2 0-3.5-.1-3.5 2.5z" data-name="패스 600"/>
                <path id="패스_601" d="M76.2 106.1h1.6v-2.3l4-1.8v4.1h2.1v2.5h-2.1v7.7c0 1.1 0 1.8 1.3 1.8a1.483 1.483 0 0 0 .7-.1v2.5a11.567 11.567 0 0 1-2.1.1c-3.5 0-4-2.3-4-3.2v-8.9h-1.6v-2.4z" data-name="패스 601"/>
                <path id="패스_602" d="M90.1 99.9v3.2h-4v-3.2zm0 20.7h-4v-14.5h4z" data-name="패스 602"/>
                <path id="패스_603" d="M93.4 113.1c0-4 .6-7.3 5.9-7.3s5.9 3.4 5.9 7.3c0 4.5-.7 7.7-5.9 7.7s-5.9-3.1-5.9-7.7zm7.7-.2c0-3-.1-4.5-1.9-4.5s-1.9 1.5-1.9 4.5c0 4.4.4 5.4 1.9 5.4s1.9-1 1.9-5.4z" data-name="패스 603"/>
                <path id="패스_604" d="M112.1 107.5a3.02 3.02 0 0 1 1.5-1.3 4.211 4.211 0 0 1 2-.4c1.9 0 3.6 1.1 3.6 3.2v11.6h-4v-10c0-1.3-.2-2.3-1.5-2.3s-1.5 1-1.5 2.3v10h-4v-14.5h4v1.4z" data-name="패스 604"/>
                <path id="패스_605" d="M127.3 120.6l5.7-20.7h5.7l5.6 20.7h-4.6l-1.1-4.6h-5.9l-1.2 4.6h-4.2zm8.4-16.8l-2 8.9h4.1z" data-name="패스 605"/>
                <path id="패스_606" d="M153.6 111.2c0-2.1-.5-2.9-1.8-2.9-1.7 0-1.9 1.5-1.9 4.5 0 4.4.4 5.4 1.9 5.4 1.3 0 1.9-1.1 1.9-3h4c0 3.9-2.1 5.6-5.9 5.6-5.2 0-5.9-3.2-5.9-7.7 0-4 .6-7.3 5.9-7.3 3.7 0 5.8 1.7 5.8 5.4z" data-name="패스 606"/>
                <path id="패스_607" d="M171.5 117.9a24.521 24.521 0 0 0 .2 2.7H168l-.2-1.9h-.1a4 4 0 0 1-3.8 2.2c-2.8 0-3.8-2.1-3.8-4.6 0-4.8 3.7-5 7.5-4.9v-1.1c0-1.2-.2-2.1-1.6-2.1s-1.5 1.1-1.5 2.2h-4c0-1.7.5-2.9 1.5-3.5a6.135 6.135 0 0 1 3.8-.9c5.1 0 5.8 2.2 5.8 4.8v7.1zm-7.4-1.8c0 1 .2 2.3 1.5 2.3 2.4 0 2-3.2 2-4.8-2 0-3.5-.1-3.5 2.5z" data-name="패스 607"/>
                <path id="패스_608" d="M182.1 120.6V119h-.1a3.438 3.438 0 0 1-3.4 1.9c-4.2 0-4-4.6-4-7.6 0-2.9-.1-7.4 4-7.4a3.388 3.388 0 0 1 3.3 1.7h.1V100h4v20.7h-3.9zm-.2-7.4c0-2.9 0-4.9-1.6-4.9-1.7 0-1.7 2-1.7 4.9 0 3.6.3 5.2 1.7 5.2 1.3-.1 1.6-1.6 1.6-5.2z" data-name="패스 608"/>
                <path id="패스_609" d="M192.9 114c0 1.7.1 4.3 1.8 4.3 1.4 0 1.7-1.4 1.7-2.6h4.1a5.722 5.722 0 0 1-1.5 3.8 6 6 0 0 1-4.3 1.4c-5.2 0-5.9-3.2-5.9-7.7 0-4 .6-7.3 5.9-7.3 5.4 0 6 3.5 5.9 8.2h-7.7zm3.7-2.3c0-1.4.1-3.4-1.9-3.4-1.9 0-1.8 2.2-1.8 3.4z" data-name="패스 609"/>
                <path id="패스_610" d="M207.3 107.5a3.7 3.7 0 0 1 3.5-1.7 3.576 3.576 0 0 1 3.2 1.8 4.166 4.166 0 0 1 3.8-1.8c1.9 0 3.6 1.1 3.6 3.2v11.6h-4v-10c0-1.3-.2-2.3-1.5-2.3s-1.5 1-1.5 2.3v10h-4v-10c0-1.3-.2-2.3-1.5-2.3s-1.5 1-1.5 2.3v10h-4v-14.5h4v1.4z" data-name="패스 610"/>
                <path id="패스_611" d="M226.8 120.7l-3.9-14.6h4l2.1 10.2h.1l2.2-10.2h3.9l-5.6 19.9h-4.2z" data-name="패스 611"/>
            </g>
        </g>
        <path id="사각형_3293" d="M0 0h378v200H0z" class="cls-5" data-name="사각형 3293" transform="translate(902 3070)"/>
    </g>
</svg>
