<svg xmlns="http://www.w3.org/2000/svg" width="1194" height="592" viewBox="0 0 1194 592">
    <defs>
        <style>
            .cls-1,.cls-2,.cls-3{fill:none}.cls-3{stroke:#e4e4e4}.cls-4{fill:#c3eaff}.cls-5,.cls-6{stroke:none}.cls-6{fill:#e4e4e4}
        </style>
    </defs>
    <g id="img_main_large" transform="translate(-363 -194)">
        <path id="사각형_3318" d="M0 0h1194v592H0z" class="cls-1" data-name="사각형 3318" transform="translate(363 194)"/>
        <g id="패스_708" class="cls-2" data-name="패스 708">
            <path d="M390.882 363.939l51.262-88.788-51.263-88.788H288.359L237.1 275.151l51.262 88.788z" class="cls-5" transform="translate(227.678 214.338)"/>
            <path d="M390.305 362.939l50.685-87.788-50.686-87.788H288.936l-50.685 87.788 50.684 87.788h101.37m.577 1H288.358l-51.261-88.788 51.262-88.788h102.523l51.263 88.788-51.263 88.788z" class="cls-6" transform="translate(227.678 214.338)"/>
        </g>
        <g id="패스_709" class="cls-2" data-name="패스 709">
            <path d="M390.882 363.939l51.262-88.788-51.263-88.788H288.359L237.1 275.151l51.262 88.788z" class="cls-5" transform="translate(1114.571 36.636)"/>
            <path d="M390.305 362.939l50.685-87.788-50.686-87.788H288.936l-50.685 87.788 50.684 87.788h101.37m.577 1H288.358l-51.261-88.788 51.262-88.788h102.523l51.263 88.788-51.263 88.788z" class="cls-6" transform="translate(1114.571 36.636)"/>
        </g>
        <g id="패스_692" class="cls-2" data-name="패스 692">
            <path d="M390.882 363.939l51.262-88.788-51.263-88.788H288.359L237.1 275.151l51.262 88.788z" class="cls-5" transform="translate(431.408 214.338)"/>
            <path d="M390.305 362.939l50.685-87.788-50.686-87.788H288.936l-50.685 87.788 50.684 87.788h101.37m.577 1H288.358l-51.261-88.788 51.262-88.788h102.523l51.263 88.788-51.263 88.788z" class="cls-6" transform="translate(431.408 214.338)"/>
        </g>
        <path id="패스_687" d="M328.42-12173.35l51.46 89.356" class="cls-3" data-name="패스 687" transform="translate(85.91 12574.026)"/>
        <g id="패스_676" class="cls-2" data-name="패스 676">
            <path d="M390.882 363.939l51.262-88.788-51.263-88.788H288.359L237.1 275.151l51.262 88.788z" class="cls-5" transform="translate(125.903 37.998)"/>
            <path d="M390.305 362.939l50.685-87.788-50.686-87.788H288.936l-50.685 87.788 50.684 87.788h101.37m.577 1H288.358l-51.261-88.788 51.262-88.788h102.523l51.263 88.788-51.263 88.788z" class="cls-6" transform="translate(125.903 37.998)"/>
        </g>
        <g id="패스_710" class="cls-2" data-name="패스 710">
            <path d="M390.882 363.939l51.262-88.788-51.263-88.788H288.359L237.1 275.151l51.262 88.788z" class="cls-5" transform="translate(329.612 37.998)"/>
            <path d="M390.305 362.939l50.685-87.788-50.686-87.788H288.936l-50.685 87.788 50.684 87.788h101.37m.577 1H288.358l-51.261-88.788 51.262-88.788h102.523l51.263 88.788-51.263 88.788z" class="cls-6" transform="translate(329.612 37.998)"/>
        </g>
        <g id="패스_678" class="cls-2" data-name="패스 678">
            <path d="M390.882 363.939l51.262-88.788-51.263-88.788H288.359L237.1 275.151l51.262 88.788z" class="cls-5" transform="translate(329.612 390.901)"/>
            <path d="M390.305 362.939l50.685-87.788-50.686-87.788H288.936l-50.685 87.788 50.684 87.788h101.37m.577 1H288.358l-51.261-88.788 51.262-88.788h102.523l51.263 88.788-51.263 88.788z" class="cls-6" transform="translate(329.612 390.901)"/>
        </g>
        <g id="패스_680" class="cls-2" data-name="패스 680">
            <path d="M390.882 363.939l51.262-88.788-51.263-88.788H288.359L237.1 275.151l51.262 88.788z" class="cls-5" transform="translate(706.323 37.998)"/>
            <path d="M390.305 362.939l50.685-87.788-50.686-87.788H288.936l-50.685 87.788 50.684 87.788h101.37m.577 1H288.358l-51.261-88.788 51.262-88.788h102.523l51.263 88.788-51.263 88.788z" class="cls-6" transform="translate(706.323 37.998)"/>
        </g>
        <g id="패스_681" class="cls-2" data-name="패스 681">
            <path d="M390.882 363.939l51.262-88.788-51.263-88.788H288.359L237.1 275.151l51.262 88.788z" class="cls-5" transform="translate(809.236 214.338)"/>
            <path d="M390.305 362.939l50.685-87.788-50.686-87.788H288.936l-50.685 87.788 50.684 87.788h101.37m.577 1H288.358l-51.261-88.788 51.262-88.788h102.523l51.263 88.788-51.263 88.788z" class="cls-6" transform="translate(809.236 214.338)"/>
        </g>
        <g id="패스_690" class="cls-2" data-name="패스 690">
            <path d="M390.882 363.939l51.262-88.788-51.263-88.788H288.359L237.1 275.151l51.262 88.788z" class="cls-5" transform="translate(910.803 390.642)"/>
            <path d="M390.305 362.939l50.685-87.788-50.686-87.788H288.936l-50.685 87.788 50.684 87.788h101.37m.577 1H288.358l-51.261-88.788 51.262-88.788h102.523l51.263 88.788-51.263 88.788z" class="cls-6" transform="translate(910.803 390.642)"/>
        </g>
        <path id="패스_682" d="M390.882 363.939l51.262-88.788-51.263-88.788H288.359L237.1 275.151l51.262 88.788z" class="cls-4" data-name="패스 682" transform="translate(1114.855 37.998)"/>
        <g id="패스_683" class="cls-2" data-name="패스 683">
            <path d="M390.882 363.939l51.262-88.788-51.263-88.788H288.359L237.1 275.151l51.262 88.788z" class="cls-5" transform="translate(1012.796 214.338)"/>
            <path d="M390.305 362.939l50.685-87.788-50.686-87.788H288.936l-50.685 87.788 50.684 87.788h101.37m.577 1H288.358l-51.261-88.788 51.262-88.788h102.523l51.263 88.788-51.263 88.788z" class="cls-6" transform="translate(1012.796 214.338)"/>
        </g>
        <g id="패스_684" class="cls-2" data-name="패스 684">
            <path d="M390.882 363.939l51.262-88.788-51.263-88.788H288.359L237.1 275.151l51.262 88.788z" class="cls-5" transform="translate(1114.855 390.642)"/>
            <path d="M390.305 362.939l50.685-87.788-50.686-87.788H288.936l-50.685 87.788 50.684 87.788h101.37m.577 1H288.358l-51.261-88.788 51.262-88.788h102.523l51.263 88.788-51.263 88.788z" class="cls-6" transform="translate(1114.855 390.642)"/>
        </g>
        <g id="패스_679" class="cls-2" data-name="패스 679">
            <path d="M390.882 363.939l51.262-88.788-51.263-88.788H288.359L237.1 275.151l51.262 88.788z" class="cls-5" transform="translate(125.903 390.901)"/>
            <path d="M390.305 362.939l50.685-87.788-50.686-87.788H288.936l-50.685 87.788 50.684 87.788h101.37m.577 1H288.358l-51.261-88.788 51.262-88.788h102.523l51.263 88.788-51.263 88.788z" class="cls-6" transform="translate(125.903 390.901)"/>
        </g>
        <path id="패스_691" d="M390.882 363.939l51.262-88.788-51.263-88.788H288.359L237.1 275.151l51.262 88.788z" class="cls-4" data-name="패스 691" transform="translate(910.945 390.642)"/>
        <path id="패스_677" d="M390.882 363.939l51.262-88.788-51.263-88.788H288.359L237.1 275.151l51.262 88.788z" class="cls-4" data-name="패스 677" transform="translate(227.678 214.338)"/>
    </g>
</svg>
