<svg xmlns="http://www.w3.org/2000/svg" width="888" height="327.292" viewBox="0 0 888 327.292">
    <defs>
        <style>
            .cls-1,.cls-2,.cls-3{fill:none}.cls-3{stroke:#009be8;stroke-dasharray:3}.cls-10,.cls-4{fill:#009be8}.cls-4{opacity:.997}.cls-5{fill:#007ecf}.cls-10,.cls-6,.cls-7,.cls-8,.cls-9{stroke:none}.cls-7{fill:rgba(0,155,232,.4)}.cls-8{fill:rgba(0,155,232,.6)}.cls-9{fill:rgba(0,155,232,.8)}
        </style>
    </defs>
    <g id="img_about_vision" transform="translate(-239 -116)">
        <path id="사각형_3270" d="M0 0h888v327H0z" class="cls-1" data-name="사각형 3270" transform="translate(239 116)"/>
        <g id="패스_543" class="cls-2" data-name="패스 543">
            <path d="M476.328 402.078l55-95-55-95h-110l-55 95 55 95z" class="cls-6" transform="translate(-72.329 -28.786)"/>
            <path d="M475.464 400.578l54.131-93.5-54.132-93.5h-108.27l-54.131 93.5 54.131 93.5h108.271m.865 1.5h-110l-55-95 55-95h110l55 95-55 95z" class="cls-7" transform="translate(-72.329 -28.786)"/>
        </g>
        <g id="패스_543-2" class="cls-2" data-name="패스 543">
            <path d="M476.328 402.078l55-95-55-95h-110l-55 95 55 95z" class="cls-6" transform="translate(147.671 -28.786)"/>
            <path d="M475.464 400.578l54.131-93.5-54.132-93.5h-108.27l-54.131 93.5 54.131 93.5h108.271m.865 1.5h-110l-55-95 55-95h110l55 95-55 95z" class="cls-8" transform="translate(147.671 -28.786)"/>
        </g>
        <g id="패스_543-3" class="cls-2" data-name="패스 543">
            <path d="M476.328 402.078l55-95-55-95h-110l-55 95 55 95z" class="cls-6" transform="translate(367.671 -28.786)"/>
            <path d="M475.464 400.578l54.131-93.5-54.132-93.5h-108.27l-54.131 93.5 54.131 93.5h108.271m.865 1.5h-110l-55-95 55-95h110l55 95-55 95z" class="cls-9" transform="translate(367.671 -28.786)"/>
        </g>
        <g id="패스_543-4" class="cls-2" data-name="패스 543">
            <path d="M476.328 402.078l55-95-55-95h-110l-55 95 55 95z" class="cls-6" transform="translate(587.671 -28.786)"/>
            <path d="M475.464 400.578l54.131-93.5-54.132-93.5h-108.27l-54.131 93.5 54.131 93.5h108.271m.865 1.5h-110l-55-95 55-95h110l55 95-55 95z" class="cls-10" transform="translate(587.671 -28.786)"/>
        </g>
        <path id="패스_560" d="M2108-7376.292s23.964 63.367 121.342 63.367h218.041" class="cls-3" data-name="패스 560" transform="translate(-1761 7751.292)"/>
        <path id="패스_562" d="M2108-7312.925s23.964-63.367 121.342-63.367h218.041" class="cls-3" data-name="패스 562" transform="translate(-1761 7497.216)"/>
        <path id="패스_561" d="M2447.383-7376.292s-23.964 63.367-121.342 63.367H2108" class="cls-3" data-name="패스 561" transform="translate(-1422 7751.292)"/>
        <path id="패스_563" d="M2447.383-7312.925s-23.964-63.367-121.342-63.367H2108" class="cls-3" data-name="패스 563" transform="translate(-1422 7497.216)"/>
        <circle id="타원_27" cx="5" cy="5" r="5" class="cls-4" data-name="타원 27" transform="translate(501 433.292)"/>
        <circle id="타원_29" cx="5" cy="5" r="5" class="cls-4" data-name="타원 29" transform="translate(806 116)"/>
        <circle id="타원_28" cx="5" cy="5" r="5" class="cls-4" data-name="타원 28" transform="translate(991 405.292)"/>
        <path id="패스_758" d="M-9.48-3.024v-4.608h6.312v-2.544h-12.36v-5.808h12.192v-2.544H-18.72v10.9h6.072v4.608h-8.4v2.588h20.016v-2.592zm22.368-11.3v2.568h3.456v7.848h3.168V-20.04h-3.168v5.712zm1.464 5.084a6.8 6.8 0 0 1-4.992-6.5v-.288h4.3v-2.52H1.776v2.52H6.12v.312a7.1 7.1 0 0 1-5.208 6.86L2.5-6.336a8.668 8.668 0 0 0 5.3-4.8 8.178 8.178 0 0 0 5.016 4.368zm-6.24 8.4v-4.416H4.944V1.68h15.072V-.84z" class="cls-5" data-name="패스 758" transform="translate(349 288.292)"/>
        <path id="패스_757" d="M-8.856-18.144h-4.32v-2.064h-3.168v2.064h-4.632v2.472h12.12zm-8.136 7.464c0-1.152.936-1.824 2.232-1.824 1.272 0 2.232.672 2.232 1.824s-.96 1.848-2.232 1.848c-1.296 0-2.232-.696-2.232-1.848zm7.392 0c0-2.448-2.208-4.224-5.16-4.224s-5.184 1.776-5.184 4.224 2.232 4.224 5.184 4.224S-9.6-8.232-9.6-10.68zm-8.016 8.208h11.88v4.56h3.168v-7.08h-15.048zm11.88-17.568v4.94h-2.832v2.52h2.832v1.728h-2.9v2.52h2.9v2.352h3.168v-14.06zm25.128.024H16.2v16.1h3.192zM14.568-9.768a6.973 6.973 0 0 1-5.136-6.888v-2.16H6.216v2.16A7.5 7.5 0 0 1 .96-9.384l1.608 2.52a8.9 8.9 0 0 0 5.3-4.92 8.484 8.484 0 0 0 5.092 4.536zM7.848-.84v-4.608H4.68V1.68h15.264V-.84z" class="cls-5" data-name="패스 757" transform="translate(569 288.292)"/>
        <path id="패스_756" d="M-5.736-13.824v2.208h-3.936v-2.208zm-7.032 4.152h-4.2v-3.12h4.2zm3.1.576h3.936v5.376h3.168v-16.32h-3.172v3.672h-3.936v-2.208h-3.1v3.36h-4.2v-3.36h-3.144v11.424h10.44zM-13.992-.84V-5.3h-3.168v6.98h15.072V-.84zm28.2-16.776h-4.9v-2.328H6.144v2.328H1.2v2.5h13.008zm-8.88 7.536c0-1.152.96-1.776 2.4-1.776s2.4.624 2.4 1.776-.96 1.78-2.4 1.78-2.4-.628-2.4-1.78zM9.312-6.1c2.3-.456 3.816-1.968 3.816-3.984 0-2.5-2.232-4.176-5.4-4.176s-5.4 1.68-5.4 4.176c0 2.016 1.512 3.528 3.816 3.984v1.872C4.2-4.18 2.376-4.18.792-4.18l.384 2.568a70.539 70.539 0 0 0 13.368-.908L14.3-4.8c-1.584.24-3.288.36-4.992.456zm12.048-4.94H18.6v-9h-3.168v22.1H18.6V-8.424h2.76z" class="cls-5" data-name="패스 756" transform="translate(789 288.292)"/>
        <path id="패스_755" d="M-19.968-18.048v14.856h10.632v-14.856zm7.512 2.5v9.864h-4.392v-9.864zM-5.9-20.04V2.112h3.168V-20.04zM4.7-9.336h5.26V-17.9H1.608v2.544h5.3v3.528H1.632v9h1.56a47.107 47.107 0 0 0 7.9-.528l-.24-2.568a46.7 46.7 0 0 1-6.144.5zm12.292-10.728v8.352H15v-7.944h-2.952V1.008H15V-9.168h1.992V2.04h3v-22.1z" class="cls-5" data-name="패스 755" transform="translate(1009 288.292)"/>
    </g>
</svg>
