<svg xmlns="http://www.w3.org/2000/svg" id="logo_navigation" width="174" height="64" viewBox="0 0 174 64">
    <defs>
        <style>
            .cls-1{fill:#0070c3}.cls-2{fill:#0051a4}.cls-3{fill:#008de0}.cls-4{fill:#003288}.cls-5{fill:#1a1311}.cls-6{fill:none}
        </style>
    </defs>
    <g id="그룹_5" data-name="그룹 5" transform="translate(-237.096 -176.363)">
        <g id="그룹_3" data-name="그룹 3" transform="translate(237.096 186.363)">
            <g id="그룹_2" data-name="그룹 2">
                <g id="그룹_1" data-name="그룹 1">
                    <path id="패스_1" d="M274.213 232.317h8.523l-4.262-7.382z" class="cls-1" data-name="패스 1" transform="translate(-252.904 -202.791)"/>
                    <path id="패스_2" d="M342.122 232.317l-4.262-7.382-4.262 7.382z" class="cls-2" data-name="패스 2" transform="translate(-278.196 -202.79)"/>
                    <path id="패스_3" d="M318.752 237.793l4.262 7.382 4.262-7.382h-8.524z" class="cls-2" data-name="패스 3" transform="translate(-271.873 -208.266)"/>
                    <path id="패스_4" d="M303.905 212.078l4.262 7.382 4.262-7.382z" class="cls-1" data-name="패스 4" transform="translate(-265.55 -197.315)"/>
                    <path id="패스_5" d="M308.167 224.935l-4.262 7.382h8.523z" class="cls-1" data-name="패스 5" transform="translate(-265.55 -202.79)"/>
                    <path id="패스_6" d="M271.051 201.126h8.523l-4.262-7.382 4.262-7.382h-8.523l-4.262 7.382 4.262 7.382z" class="cls-3" data-name="패스 6" transform="translate(-249.742 -186.363)"/>
                    <path id="패스_7" d="M282.736 212.078h-8.523l4.262 7.382 4.262-7.382z" class="cls-1" data-name="패스 7" transform="translate(-252.904 -197.315)"/>
                    <path id="패스_8" d="M343.222 245.174l-4.262-7.382h-8.523l-4.262 7.382 4.262 7.382h8.523l2.131-3.691z" class="cls-4" data-name="패스 8" transform="translate(-275.034 -208.266)"/>
                    <path id="패스_9" d="M309.267 237.793h-8.523l-4.262 7.382 4.262 7.382h8.523l4.262-7.382-4.262-7.382z" class="cls-4" data-name="패스 9" transform="translate(-262.388 -208.266)"/>
                    <path id="패스_10" d="M259.366 252.556h8.524l4.262-7.382-4.262-7.382z" class="cls-2" data-name="패스 10" transform="translate(-246.581 -208.266)"/>
                    <path id="패스_11" d="M264.728 237.793H256.2l-4.262 7.382 4.262 7.382 8.524-14.763z" class="cls-1" data-name="패스 11" transform="translate(-243.419 -208.266)"/>
                    <path id="패스_12" d="M324.114 226.841l4.262-7.382-4.262-7.382h-8.523l-4.262 7.382 4.262 7.382z" class="cls-4" data-name="패스 12" transform="translate(-268.711 -197.315)"/>
                    <path id="패스_13" d="M294.421 226.841l4.262-7.382-4.262-7.382H285.9l-4.262 7.382 4.262 7.382z" class="cls-2" data-name="패스 13" transform="translate(-256.065 -197.315)"/>
                    <path id="패스_14" d="M264.728 226.841l4.262-7.382-4.262-7.382H256.2l-4.262 7.382 4.262 7.382z" class="cls-3" data-name="패스 14" transform="translate(-243.419 -197.315)"/>
                    <path id="패스_15" d="M303.905 201.126h8.523l4.262-7.382-4.262-7.382h-8.523l4.262 7.382z" class="cls-2" data-name="패스 15" transform="translate(-265.55 -186.363)"/>
                    <path id="패스_16" d="M289.059 206.6h8.523l-4.262-7.382z" class="cls-1" data-name="패스 16" transform="translate(-259.227 -191.839)"/>
                    <path id="패스_17" d="M297.582 186.363h-8.524l4.262 7.382z" class="cls-3" data-name="패스 17" transform="translate(-259.227 -186.363)"/>
                    <path id="패스_18" d="M285.9 201.126l4.262-7.382-4.262-7.382-4.262 7.382z" class="cls-1" data-name="패스 18" transform="translate(-256.065 -186.363)"/>
                    <path id="패스_19" d="M296.482 193.745l4.262 7.382 4.262-7.382-4.262-7.382-4.262 7.382z" class="cls-1" data-name="패스 19" transform="translate(-262.388 -186.363)"/>
                    <path id="패스_20" d="M249.882 201.126l4.262-7.382-4.262-7.382h-8.523l-4.262 7.382 4.262 7.382z" class="cls-3" data-name="패스 20" transform="translate(-237.096 -186.363)"/>
                    <path id="패스_21" d="M338.96 201.126l4.262-7.382-4.262-7.382h-8.523l-4.262 7.382 4.262 7.382z" class="cls-4" data-name="패스 21" transform="translate(-275.034 -186.363)"/>
                </g>
                <path id="패스_22" d="M248.781 224.935l-4.262 7.382h8.523z" class="cls-1" data-name="패스 22" transform="translate(-240.258 -202.79)"/>
                <path id="패스_23" d="M249.882 237.793h-8.523l-4.262 7.382 4.262 7.382h8.524l-4.262-7.382 4.262-7.382z" class="cls-3" data-name="패스 23" transform="translate(-237.096 -208.266)"/>
                <path id="패스_24" d="M323.014 199.22l-4.262 7.382h8.523z" class="cls-1" data-name="패스 24" transform="translate(-271.873 -191.839)"/>
                <path id="패스_25" d="M333.6 212.078h8.524l-4.262 7.382z" class="cls-2" data-name="패스 25" transform="translate(-278.196 -197.315)"/>
                <path id="패스_26" d="M263.628 199.22l-4.262 7.382h8.523z" class="cls-1" data-name="패스 26" transform="translate(-246.581 -191.839)"/>
                <path id="패스_27" d="M244.52 212.078h8.523l-4.262 7.382z" class="cls-1" data-name="패스 27" transform="translate(-240.258 -197.315)"/>
            </g>
        </g>
        <g id="그룹_4" data-name="그룹 4" transform="translate(323.244 189.763)">
            <path id="패스_28" d="M389.148 207.34v-15.054h3.152v15.054z" class="cls-5" data-name="패스 28" transform="translate(-388.002 -192.286)"/>
            <path id="패스_29" d="M401.929 201.076h.042a2.438 2.438 0 0 1 1.042-.98 3.167 3.167 0 0 1 1.439-.292 2.387 2.387 0 0 1 2.627 2.294v8.444h-2.94v-7.256c0-.938-.167-1.668-1.1-1.668s-1.105.73-1.105 1.668v7.256h-2.94v-10.53h2.94z" class="cls-5" data-name="패스 29" transform="translate(-392.193 -195.488)"/>
            <path id="패스_30" d="M420.085 201.076h.042a2.438 2.438 0 0 1 1.042-.98 3.167 3.167 0 0 1 1.439-.292 2.387 2.387 0 0 1 2.627 2.294v8.444H422.3v-7.256c0-.938-.167-1.668-1.105-1.668s-1.105.73-1.105 1.668v7.256h-2.94v-10.53h2.94z" class="cls-5" data-name="패스 30" transform="translate(-399.925 -195.488)"/>
            <path id="패스_31" d="M434.866 205.142c0-2.877.417-5.338 4.295-5.338s4.295 2.46 4.295 5.338c0 3.294-.5 5.608-4.295 5.608s-4.295-2.314-4.295-5.608zm5.65-.167c0-2.19-.1-3.295-1.355-3.295s-1.355 1.105-1.355 3.295c0 3.21.271 3.9 1.355 3.9s1.355-.69 1.355-3.9z" class="cls-5" data-name="패스 31" transform="translate(-407.472 -195.488)"/>
            <path id="패스_32" d="M451.715 200.167h2.985l1.48 7.9h.042l1.543-7.9h2.877l-2.9 10.529h-3.232z" class="cls-5" data-name="패스 32" transform="translate(-414.648 -195.642)"/>
            <path id="패스_33" d="M477.334 208.582c0 .646.083 1.314.146 1.96h-2.732l-.125-1.4h-.042a2.918 2.918 0 0 1-2.752 1.606c-2.043 0-2.794-1.522-2.794-3.357 0-3.481 2.69-3.627 5.421-3.586v-.813c0-.9-.125-1.543-1.188-1.543-1.022 0-1.105.772-1.105 1.605h-2.877a2.883 2.883 0 0 1 1.084-2.565 4.579 4.579 0 0 1 2.752-.688c3.732 0 4.212 1.606 4.212 3.523zm-5.421-1.314c0 .75.125 1.668 1.084 1.668 1.73 0 1.459-2.335 1.459-3.481-1.456.062-2.543-.064-2.543 1.813z" class="cls-5" data-name="패스 33" transform="translate(-422.025 -195.488)"/>
            <path id="패스_34" d="M485.667 197.955h1.188v-1.668l2.939-1.314v2.981h1.522v1.814h-1.522v5.63c0 .792-.021 1.314.939 1.314a2.02 2.02 0 0 0 .521-.042v1.814a12.127 12.127 0 0 1-1.522.1c-2.543 0-2.877-1.689-2.877-2.335v-6.485h-1.188z" class="cls-5" data-name="패스 34" transform="translate(-429.108 -193.431)"/>
            <path id="패스_35" d="M501.207 192.286v2.314h-2.939v-2.314zm0 15.054h-2.939v-10.529h2.939z" class="cls-5" data-name="패스 35" transform="translate(-434.475 -192.286)"/>
            <path id="패스_36" d="M507.491 205.142c0-2.877.417-5.338 4.3-5.338s4.295 2.46 4.295 5.338c0 3.294-.5 5.608-4.295 5.608s-4.3-2.314-4.3-5.608zm5.65-.167c0-2.19-.1-3.295-1.355-3.295s-1.356 1.105-1.356 3.295c0 3.21.271 3.9 1.356 3.9s1.355-.69 1.355-3.9z" class="cls-5" data-name="패스 36" transform="translate(-438.403 -195.488)"/>
            <path id="패스_37" d="M529.023 201.076h.042a2.438 2.438 0 0 1 1.042-.98 3.167 3.167 0 0 1 1.439-.292 2.387 2.387 0 0 1 2.627 2.294v8.444h-2.939v-7.256c0-.938-.167-1.668-1.105-1.668s-1.105.73-1.105 1.668v7.256h-2.94v-10.53h2.94z" class="cls-5" data-name="패스 37" transform="translate(-446.321 -195.488)"/>
            <path id="패스_38" d="M387.151 248.067l4.17-15.053h4.149l4.087 15.053h-3.315l-.834-3.336h-4.295l-.855 3.336zm6.067-12.154h-.042l-1.438 6.5h3z" class="cls-5" data-name="패스 38" transform="translate(-387.151 -209.632)"/>
            <path id="패스_39" d="M416.253 244.492c0-1.564-.4-2.085-1.314-2.085-1.251 0-1.355 1.1-1.355 3.294 0 3.211.271 3.9 1.355 3.9.917 0 1.356-.834 1.356-2.21h2.939c0 2.856-1.543 4.087-4.295 4.087-3.794 0-4.295-2.315-4.295-5.608 0-2.877.417-5.337 4.295-5.337 2.711 0 4.254 1.21 4.254 3.961z" class="cls-5" data-name="패스 39" transform="translate(-397.157 -212.833)"/>
            <path id="패스_40" d="M436.99 249.309c0 .646.083 1.313.146 1.959H434.4l-.125-1.4h-.042a2.918 2.918 0 0 1-2.752 1.605c-2.043 0-2.794-1.523-2.794-3.357 0-3.481 2.69-3.628 5.421-3.586v-.814c0-.9-.125-1.543-1.189-1.543-1.021 0-1.1.772-1.1 1.606h-2.877a2.881 2.881 0 0 1 1.085-2.565 4.574 4.574 0 0 1 2.752-.688c3.732 0 4.212 1.605 4.212 3.523zm-5.421-1.314c0 .751.125 1.668 1.084 1.668 1.73 0 1.459-2.335 1.459-3.483-1.458.063-2.543-.061-2.543 1.815z" class="cls-5" data-name="패스 40" transform="translate(-404.843 -212.833)"/>
            <path id="패스_41" d="M452.492 248.067V246.9h-.041a2.5 2.5 0 0 1-2.481 1.376c-3.044 0-2.94-3.377-2.94-5.546 0-2.127-.083-5.4 2.877-5.4a2.574 2.574 0 0 1 2.4 1.21h.042v-5.525h2.94v15.053zm-.146-5.358c0-2.106.021-3.565-1.188-3.565-1.272 0-1.251 1.459-1.251 3.565 0 2.648.188 3.754 1.251 3.754 1.001-.001 1.188-1.106 1.188-3.755z" class="cls-5" data-name="패스 41" transform="translate(-412.653 -209.632)"/>
            <path id="패스_42" d="M468.075 246.473c0 1.251.042 3.127 1.334 3.127 1.043 0 1.251-1 1.251-1.876h2.981a3.744 3.744 0 0 1-1.126 2.731 4.415 4.415 0 0 1-3.107 1.022c-3.795 0-4.295-2.315-4.295-5.608 0-2.877.417-5.337 4.295-5.337 3.961 0 4.4 2.565 4.295 5.942zm2.69-1.647c0-1.022.041-2.481-1.356-2.481-1.355 0-1.334 1.585-1.334 2.481z" class="cls-5" data-name="패스 42" transform="translate(-420.355 -212.833)"/>
            <path id="패스_43" d="M486.246 241.8h.042a2.9 2.9 0 0 1 4.837.063 3.121 3.121 0 0 1 2.732-1.334 2.386 2.386 0 0 1 2.627 2.293v8.444h-2.939v-7.255c0-.938-.167-1.668-1.105-1.668s-1.105.73-1.105 1.668v7.255h-2.877v-7.255c0-.938-.167-1.668-1.1-1.668s-1.105.73-1.105 1.668v7.255h-2.939V240.74h2.939z" class="cls-5" data-name="패스 43" transform="translate(-428.103 -212.833)"/>
            <path id="패스_44" d="M511.073 251.507l-2.857-10.612h2.919l1.5 7.4h.042l1.585-7.4h2.838l-4.066 14.511h-3.086z" class="cls-5" data-name="패스 44" transform="translate(-438.711 -212.988)"/>
        </g>
    </g>
    <path id="사각형_3218" d="M0 0h174v64H0z" class="cls-6" data-name="사각형 3218"/>
</svg>
