<svg xmlns="http://www.w3.org/2000/svg" id="logo_footer" width="144" height="26" viewBox="0 0 144 26">
    <defs>
        <style>
            .cls-1{fill:#404040}.cls-2{fill:#8c8c8c}.cls-3{fill:#b3b3b3}.cls-4{fill:#1a1a1a}.cls-5{fill:#1a1311}.cls-6{fill:none}
        </style>
    </defs>
    <g id="그룹_92" data-name="그룹 92" transform="translate(0 1.625)">
        <g id="그룹_6" data-name="그룹 6">
            <path id="패스_45" d="M261.934 391.5a.229.229 0 0 1-.2-.112l-4.2-7.137a.222.222 0 0 1 .083-.306.231.231 0 0 1 .312.082l2.033 3.457h4.065a.23.23 0 0 1 .2.112.221.221 0 0 1 0 .224l-2.1 3.568a.229.229 0 0 1-.193.112zm-1.7-3.569l1.7 2.9 1.7-2.9z" class="cls-1" data-name="패스 45" transform="translate(-257.509 -380.348)"/>
            <path id="패스_46" d="M285.966 404.594h-4.2a.229.229 0 0 1-.2-.112.221.221 0 0 1 0-.224l2.1-3.569a.24.24 0 0 1 .4 0l2.1 3.569a.221.221 0 0 1 0 .224.229.229 0 0 1-.2.112zm-3.8-.448h3.407l-1.7-2.9z" class="cls-1" data-name="패스 46" transform="translate(-271.048 -389.872)"/>
            <path id="패스_47" d="M264.033 411.731h-4.2a.228.228 0 0 1-.2-.112l-2.1-3.569a.221.221 0 0 1 0-.224l4.2-7.137a.24.24 0 0 1 .4 0l2.1 3.569a.22.22 0 0 1 0 .224l-2.033 3.457 2.033 3.457a.221.221 0 0 1 0 .224.229.229 0 0 1-.2.111zm-4.066-.448h3.671l-1.9-3.233a.221.221 0 0 1 0-.224l2.033-3.457-1.835-3.121-3.936 6.691z" class="cls-1" data-name="패스 47" transform="translate(-257.509 -389.872)"/>
            <path id="패스_48" d="M316.9 386.746a.229.229 0 0 1-.2-.112l-2.033-3.456h-4.066a.229.229 0 0 1-.2-.112.222.222 0 0 1 0-.224l4.2-7.137a.228.228 0 0 1 .2-.112H319a.229.229 0 0 1 .2.112l2.1 3.568a.22.22 0 0 1 0 .224l-4.2 7.137a.23.23 0 0 1-.2.112zm-5.9-4.017h3.8a.229.229 0 0 1 .2.112l1.9 3.233 3.934-6.69-1.967-3.345h-3.934z" class="cls-2" data-name="패스 48" transform="translate(-287.294 -375.592)"/>
            <path id="패스_49" d="M324.417 404.594h-4.2a.228.228 0 0 1-.2-.112.221.221 0 0 1 0-.224l2.1-3.569a.24.24 0 0 1 .4 0l2.1 3.569a.221.221 0 0 1 0 .224.228.228 0 0 1-.2.112zm-3.8-.448h3.407l-1.7-2.9z" class="cls-2" data-name="패스 49" transform="translate(-292.71 -389.872)"/>
            <path id="패스_50" d="M312.706 412.908a.229.229 0 0 1-.2-.112l-2.1-3.569a.221.221 0 0 1 0-.224.229.229 0 0 1 .2-.112h4.2a.229.229 0 0 1 .2.112.221.221 0 0 1 0 .224l-2.1 3.569a.228.228 0 0 1-.2.112zM311 409.34l1.7 2.9 1.7-2.9z" class="cls-2" data-name="패스 50" transform="translate(-287.294 -394.617)"/>
            <path id="패스_51" d="M303.093 396.259a.228.228 0 0 1-.2-.112l-2.1-3.568a.222.222 0 0 1 0-.224.23.23 0 0 1 .2-.112h4.2a.23.23 0 0 1 .2.112.222.222 0 0 1 0 .224l-2.1 3.568a.228.228 0 0 1-.2.112zm-1.7-3.569l1.7 2.9 1.7-2.9z" class="cls-2" data-name="패스 51" transform="translate(-281.879 -385.105)"/>
            <path id="패스_52" d="M305.191 404.594h-4.2a.229.229 0 0 1-.2-.112.221.221 0 0 1 0-.224l2.1-3.569a.239.239 0 0 1 .395 0l2.1 3.569a.221.221 0 0 1 0 .224.229.229 0 0 1-.195.112zm-3.8-.448h3.409l-1.7-2.9z" class="cls-2" data-name="패스 52" transform="translate(-281.879 -389.872)"/>
            <path id="패스_53" d="M283.258 383.177h-4.2a.229.229 0 0 1-.2-.112l-2.1-3.569a.221.221 0 0 1 0-.224l2.1-3.569a.229.229 0 0 1 .2-.112h4.2a.229.229 0 0 1 .2.112.221.221 0 0 1 0 .224l-2.033 3.456 2.033 3.457a.221.221 0 0 1 0 .224.229.229 0 0 1-.2.113zm-4.066-.448h3.671l-1.9-3.233a.222.222 0 0 1 0-.224l1.9-3.233h-3.67l-1.967 3.345z" class="cls-3" data-name="패스 53" transform="translate(-268.34 -375.592)"/>
            <path id="패스_54" d="M276.353 387.934h-4.2a.229.229 0 0 1-.2-.112.222.222 0 0 1 0-.224l2.1-3.568a.229.229 0 0 1 .2-.112.229.229 0 0 1 .2.112l2.1 3.568a.222.222 0 0 1 0 .224.229.229 0 0 1-.2.112zm-3.8-.448h3.407l-1.7-2.9z" class="cls-1" data-name="패스 54" transform="translate(-265.632 -380.348)"/>
            <path id="패스_55" d="M283.868 396.259a.229.229 0 0 1-.2-.112l-2.1-3.568a.222.222 0 0 1 0-.224.229.229 0 0 1 .2-.112h4.2a.229.229 0 0 1 .2.112.222.222 0 0 1 0 .224l-2.1 3.568a.229.229 0 0 1-.2.112zm-1.7-3.569l1.7 2.9 1.7-2.9z" class="cls-1" data-name="패스 55" transform="translate(-271.048 -385.105)"/>
            <path id="패스_56" d="M321.709 416.477h-4.2a.228.228 0 0 1-.2-.112l-2.1-3.569a.221.221 0 0 1 0-.224l2.1-3.569a.229.229 0 0 1 .2-.112h4.2a.229.229 0 0 1 .2.112l2.1 3.569a.218.218 0 0 1 0 .224l-2.1 3.569a.228.228 0 0 1-.2.112zm-4.066-.448h3.934l1.967-3.345-1.967-3.344h-3.934l-1.967 3.344z" class="cls-1" data-name="패스 56" transform="translate(-290.002 -394.617)"/>
            <path id="패스_57" d="M302.484 416.477h-4.2a.229.229 0 0 1-.2-.112l-2.1-3.569a.221.221 0 0 1 0-.224l2.1-3.569a.23.23 0 0 1 .2-.112h4.2a.23.23 0 0 1 .2.112l2.1 3.569a.221.221 0 0 1 0 .224l-2.1 3.569a.229.229 0 0 1-.2.112zm-4.065-.448h3.934l1.967-3.345-1.967-3.344h-3.934l-1.967 3.344z" class="cls-1" data-name="패스 57" transform="translate(-279.171 -394.617)"/>
            <path id="패스_58" d="M276.353 416.488h-4.2a.228.228 0 0 1-.2-.112.221.221 0 0 1 0-.224l4.2-7.137a.239.239 0 0 1 .395 0l2.1 3.569a.221.221 0 0 1 0 .224l-2.1 3.569a.229.229 0 0 1-.195.111zm-3.8-.448h3.671l1.967-3.345-1.835-3.121z" class="cls-3" data-name="패스 58" transform="translate(-265.632 -394.628)"/>
            <path id="패스_59" d="M269.448 416.477a.228.228 0 0 1-.2-.112l-2.1-3.569a.221.221 0 0 1 0-.224l2.1-3.569a.229.229 0 0 1 .2-.112h4.2a.229.229 0 0 1 .2.112.221.221 0 0 1 0 .224l-4.2 7.137a.229.229 0 0 1-.2.113zm-1.835-3.792l1.835 3.121 3.8-6.465h-3.67z" class="cls-4" data-name="패스 59" transform="translate(-262.924 -394.617)"/>
            <path id="패스_60" d="M264.033 383.177h-4.2a.23.23 0 0 1-.2-.112l-2.1-3.569a.222.222 0 0 1 0-.224l2.1-3.568a.229.229 0 0 1 .2-.112h4.2a.229.229 0 0 1 .2.112l2.1 3.568a.222.222 0 0 1 0 .224l-2.1 3.569a.23.23 0 0 1-.2.112zm-4.066-.448h3.933l1.967-3.345-1.967-3.344h-3.934L258 379.384z" class="cls-2" data-name="패스 60" transform="translate(-257.509 -375.592)"/>
            <path id="패스_61" d="M312.1 399.827h-4.2a.229.229 0 0 1-.2-.112l-2.1-3.569a.219.219 0 0 1 0-.224l2.1-3.569a.229.229 0 0 1 .2-.112h4.2a.229.229 0 0 1 .2.112l2.1 3.569a.221.221 0 0 1 0 .224l-2.1 3.569a.228.228 0 0 1-.2.112zm-4.065-.448h3.934l1.967-3.345-1.967-3.344h-3.934l-1.967 3.344z" class="cls-1" data-name="패스 61" transform="translate(-284.586 -385.105)"/>
            <path id="패스_62" d="M292.871 399.827h-4.2a.23.23 0 0 1-.2-.112l-2.1-3.569a.221.221 0 0 1 0-.224l2.1-3.569a.229.229 0 0 1 .2-.112h4.2a.23.23 0 0 1 .2.112l2.1 3.569a.221.221 0 0 1 0 .224l-2.1 3.569a.229.229 0 0 1-.2.112zm-4.065-.448h3.934l1.967-3.345-1.967-3.344h-3.934l-1.967 3.344z" class="cls-4" data-name="패스 62" transform="translate(-273.756 -385.105)"/>
            <path id="패스_63" d="M273.645 399.827h-4.2a.229.229 0 0 1-.2-.112l-2.1-3.569a.221.221 0 0 1 0-.224l2.1-3.569a.229.229 0 0 1 .2-.112h4.2a.229.229 0 0 1 .2.112l2.1 3.569a.221.221 0 0 1 0 .224l-2.1 3.569a.228.228 0 0 1-.2.112zm-4.066-.448h3.934l1.967-3.345-1.967-3.344h-3.933l-1.967 3.344z" class="cls-4" data-name="패스 63" transform="translate(-262.924 -385.105)"/>
            <path id="패스_64" d="M305.191 383.177h-4.2a.23.23 0 0 1-.2-.112.222.222 0 0 1 0-.224l2.033-3.457-2.033-3.456a.221.221 0 0 1 0-.224.23.23 0 0 1 .2-.112h4.2a.23.23 0 0 1 .2.112l2.1 3.568a.221.221 0 0 1 0 .224l-2.1 3.569a.23.23 0 0 1-.2.112zm-3.8-.448h3.671l1.967-3.345-1.967-3.345h-3.671l1.9 3.233a.221.221 0 0 1 0 .224z" class="cls-3" data-name="패스 64" transform="translate(-281.879 -375.592)"/>
            <path id="패스_65" d="M295.579 387.944h-4.2a.23.23 0 0 1-.2-.112.221.221 0 0 1 0-.224l2.1-3.568a.239.239 0 0 1 .4 0l2.1 3.568a.221.221 0 0 1 0 .224.229.229 0 0 1-.2.112zm-3.8-.448h3.408l-1.7-2.9z" class="cls-1" data-name="패스 65" transform="translate(-276.463 -380.359)"/>
            <path id="패스_66" d="M293.48 379.609a.229.229 0 0 1-.2-.112l-2.1-3.569a.221.221 0 0 1 0-.224.229.229 0 0 1 .2-.112h4.2a.229.229 0 0 1 .2.112.221.221 0 0 1 0 .224l-2.1 3.569a.23.23 0 0 1-.2.112zm-1.7-3.569l1.7 2.9 1.7-2.9z" class="cls-1" data-name="패스 66" transform="translate(-276.463 -375.592)"/>
            <path id="패스_67" d="M288.674 383.188a.23.23 0 0 1-.2-.112l-2.1-3.569a.222.222 0 0 1 0-.224l2.1-3.568a.24.24 0 0 1 .4 0l2.1 3.568a.221.221 0 0 1 0 .224l-2.1 3.569a.229.229 0 0 1-.2.112zm-1.836-3.793l1.836 3.121 1.835-3.121-1.835-3.121z" class="cls-4" data-name="패스 67" transform="translate(-273.756 -375.603)"/>
            <path id="패스_68" d="M298.287 383.177a.23.23 0 0 1-.2-.112l-2.1-3.569a.221.221 0 0 1 0-.224l2.1-3.568a.229.229 0 0 1 .2-.112.229.229 0 0 1 .2.112l2.1 3.568a.221.221 0 0 1 0 .224l-2.1 3.569a.229.229 0 0 1-.2.112zm-1.836-3.793l1.836 3.121 1.835-3.121-1.835-3.121z" class="cls-4" data-name="패스 68" transform="translate(-279.171 -375.592)"/>
        </g>
        <g id="그룹_9" data-name="그룹 9" transform="translate(40.598 4.633)">
            <g id="그룹_7" data-name="그룹 7">
                <path id="패스_69" d="M381.24 393.721h3.3v-1.312h-6.64a.247.247 0 0 1-.182-.073.3.3 0 0 1-.073-.223V387.4h-1.674v4.571a1.969 1.969 0 0 0 .369 1.346 1.534 1.534 0 0 0 1.183.408h2.044v3.042h-4.678v1.326h10.995v-1.326h-4.644z" class="cls-5" data-name="패스 69" transform="translate(-364.237 -386.969)"/>
                <path id="패스_70" d="M460.907 407.865a.232.232 0 0 1-.055-.162v-3.1h-1.664v3.447a1.277 1.277 0 0 0 .274.905 1.065 1.065 0 0 0 .822.289h6.889v-1.326h-6.119a.193.193 0 0 1-.147-.053z" class="cls-5" data-name="패스 70" transform="translate(-411.727 -396.802)"/>
                <path id="사각형_1" d="M0 0h1.602v12.594H0z" class="cls-5" data-name="사각형 1" transform="translate(7.81)"/>
                <path id="패스_71" d="M407.9 389.838h-1.3v-3.012h-1.643v2.687h-1.967v-2.68h-1.651v6.458a1.255 1.255 0 0 0 .289.892 1.013 1.013 0 0 0 .783.3h3.116a1.02 1.02 0 0 0 .783-.3 1.256 1.256 0 0 0 .284-.892v-2.127h1.306v7.83h1.6V386.4h-1.6zm-2.957 3.1a.28.28 0 0 1-.046.185.227.227 0 0 1-.172.052h-1.521a.332.332 0 0 1-.168-.03c-.033-.02-.049-.083-.049-.192v-2.127h1.957z" class="cls-5" data-name="패스 71" transform="translate(-379.136 -386.4)"/>
                <path id="사각형_2" d="M0 0h1.602v12.594H0z" class="cls-5" data-name="사각형 2" transform="translate(31.438)"/>
                <path id="패스_72" d="M353.575 387.377c-1.54 0-3.086 1.185-3.086 3.876s1.546 3.877 3.086 3.877 3.086-1.185 3.086-3.877-1.546-3.876-3.086-3.876zm0 6.428c-.655 0-1.484-.592-1.484-2.551s.829-2.551 1.484-2.551 1.484.591 1.484 2.551-.829 2.546-1.484 2.546z" class="cls-5" data-name="패스 72" transform="translate(-350.489 -386.958)"/>
                <path id="사각형_3" d="M0 0h1.602v12.594H0z" class="cls-5" data-name="사각형 3" transform="translate(42.267)"/>
                <path id="패스_73" d="M432.493 387.377c-1.54 0-3.086 1.185-3.086 3.876s1.546 3.877 3.086 3.877 3.086-1.185 3.086-3.877-1.546-3.876-3.086-3.876zm0 6.428c-.655 0-1.484-.592-1.484-2.551s.829-2.551 1.484-2.551 1.484.591 1.484 2.551-.829 2.546-1.484 2.546z" class="cls-5" data-name="패스 73" transform="translate(-394.949 -386.958)"/>
                <path id="패스_74" d="M457.283 391.787c.611 1.419 2.871 2.335 2.871 2.335l.617-1.164c-1.811-.92-2.676-1.916-2.676-3.853v-1.713h-1.624v1.713c0 1.937-.865 2.932-2.677 3.853l.618 1.164s2.259-.916 2.871-2.335z" class="cls-5" data-name="패스 74" transform="translate(-408.688 -386.967)"/>
                <path id="패스_75" d="M471.187 395.163h1.624V386.4h-1.624v1.585h-1.755v1.327h1.755v1.042h-1.755v1.327h1.755z" class="cls-5" data-name="패스 75" transform="translate(-417.498 -386.4)"/>
            </g>
            <g id="그룹_8" data-name="그룹 8" transform="translate(59.51)">
                <path id="패스_76" d="M506.271 386.4h-1.6v12.594h1.6v-7.662h1.757V390h-1.757z" class="cls-5" data-name="패스 76" transform="translate(-496.859 -386.4)"/>
                <path id="패스_77" d="M489.869 387.377c-1.54 0-3.086 1.185-3.086 3.876s1.546 3.877 3.086 3.877 3.086-1.185 3.086-3.877-1.546-3.876-3.086-3.876zm0 6.428c-.655 0-1.485-.592-1.485-2.551s.829-2.551 1.485-2.551 1.484.591 1.484 2.551-.829 2.546-1.484 2.546z" class="cls-5" data-name="패스 77" transform="translate(-486.783 -386.958)"/>
                <path id="사각형_4" d="M0 0h1.602v12.594H0z" class="cls-5" data-name="사각형 4" transform="translate(42.29)"/>
                <path id="패스_78" d="M514.372 387.751v1.326h3.362v.856a5.576 5.576 0 0 1-.043.7h-3.381v1.326h2.984a6.305 6.305 0 0 1-3.145 2.6l.618 1.165c3.463-1.545 4.568-3.239 4.568-5.92v-2.05z" class="cls-5" data-name="패스 78" transform="translate(-502.201 -387.172)"/>
                <path id="패스_79" d="M541.542 393.911c-.033-.02-.049-.083-.049-.192v-4.658h2.875v-1.311h-4.477v6.306a1.259 1.259 0 0 0 .289.893 1.014 1.014 0 0 0 .784.3h4.11v-1.311h-3.364a.336.336 0 0 1-.168-.027z" class="cls-5" data-name="패스 79" transform="translate(-516.702 -387.172)"/>
                <path id="사각형_5" d="M0 0h1.602v12.594H0z" class="cls-5" data-name="사각형 5" transform="translate(31.68)"/>
                <path id="패스_80" d="M550.959 390H549.2v1.327h1.755v7.663h1.6V386.4h-1.6z" class="cls-5" data-name="패스 80" transform="translate(-521.949 -386.4)"/>
                <path id="패스_81" d="M531.582 386.4h-1.6v12.594h1.6v-7.662h1.757V390h-1.757z" class="cls-5" data-name="패스 81" transform="translate(-511.119 -386.4)"/>
                <path id="패스_82" d="M566.74 394.057a1.257 1.257 0 0 0 .289.893 1.013 1.013 0 0 0 .783.3h4.5v-7.5h-5.572zm1.6-4.98h2.374v4.849h-2.156a.337.337 0 0 1-.168-.029c-.033-.02-.049-.083-.049-.192z" class="cls-5" data-name="패스 82" transform="translate(-531.828 -387.172)"/>
            </g>
        </g>
    </g>
    <path id="사각형_3208" d="M0 0h144v26H0z" class="cls-6" data-name="사각형 3208"/>
</svg>
