<svg xmlns="http://www.w3.org/2000/svg" id="logo_footer" width="174" height="32" viewBox="0 0 174 32">
    <defs>
        <style>
            .cls-1{fill:#404040}.cls-2{fill:#8c8c8c}.cls-3{fill:#b3b3b3}.cls-4{fill:#1a1a1a}.cls-5{fill:#1a1311}.cls-6{fill:none}
        </style>
    </defs>
    <g id="그룹_92" data-name="그룹 92" transform="translate(-257.509 -373.592)">
        <g id="그룹_6" data-name="그룹 6" transform="translate(257.509 375.592)">
            <path id="패스_45" d="M262.856 393.253a.276.276 0 0 1-.239-.138l-5.071-8.784a.276.276 0 1 1 .478-.276l2.456 4.254h4.912a.276.276 0 0 1 .239.414l-2.536 4.392a.276.276 0 0 1-.239.138zm-2.059-4.392l2.059 3.566 2.059-3.566z" class="cls-1" data-name="패스 45" transform="translate(-257.509 -379.525)"/>
            <path id="패스_46" d="M286.888 405.519h-5.072a.276.276 0 0 1-.238-.414l2.536-4.392a.287.287 0 0 1 .477 0l2.536 4.392a.276.276 0 0 1-.238.414zm-4.594-.551h4.117l-2.059-3.565z" class="cls-1" data-name="패스 46" transform="translate(-268.862 -387.399)"/>
            <path id="패스_47" d="M265.392 414.3h-5.072a.275.275 0 0 1-.238-.138l-2.536-4.392a.276.276 0 0 1 0-.275l5.071-8.784a.287.287 0 0 1 .477 0l2.536 4.392a.276.276 0 0 1 0 .275l-2.457 4.255 2.457 4.255a.275.275 0 0 1-.239.413zm-4.912-.551h4.435l-2.3-3.979a.276.276 0 0 1 0-.275l2.456-4.255-2.217-3.841-4.754 8.233z" class="cls-1" data-name="패스 47" transform="translate(-257.509 -387.399)"/>
            <path id="패스_48" d="M318.262 389.32a.276.276 0 0 1-.239-.138l-2.456-4.254h-4.913a.276.276 0 0 1-.238-.414l5.072-8.784a.275.275 0 0 1 .238-.138h5.074a.275.275 0 0 1 .238.138l2.536 4.392a.275.275 0 0 1 0 .276l-5.071 8.784a.276.276 0 0 1-.241.138zm-7.13-4.944h4.594a.275.275 0 0 1 .238.138l2.3 3.979 4.754-8.234-2.377-4.116h-4.754z" class="cls-2" data-name="패스 48" transform="translate(-282.485 -375.592)"/>
            <path id="패스_49" d="M325.339 405.519h-5.072a.276.276 0 0 1-.238-.414l2.536-4.392a.287.287 0 0 1 .477 0l2.536 4.392a.276.276 0 0 1-.238.414zm-4.595-.551h4.117L322.8 401.4z" class="cls-2" data-name="패스 49" transform="translate(-287.026 -387.399)"/>
            <path id="패스_50" d="M313.191 413.835a.276.276 0 0 1-.239-.138l-2.536-4.392a.275.275 0 0 1 .238-.413h5.072a.275.275 0 0 1 .238.413l-2.536 4.392a.275.275 0 0 1-.237.138zm-2.059-4.392l2.059 3.565 2.059-3.565z" class="cls-2" data-name="패스 50" transform="translate(-282.485 -391.323)"/>
            <path id="패스_51" d="M303.578 397.186a.275.275 0 0 1-.238-.138l-2.536-4.392a.276.276 0 0 1 .239-.414h5.071a.276.276 0 0 1 .239.414l-2.536 4.392a.275.275 0 0 1-.239.138zm-2.059-4.392l2.059 3.566 2.059-3.566z" class="cls-2" data-name="패스 51" transform="translate(-277.944 -383.458)"/>
            <path id="패스_52" d="M306.113 405.519h-5.071a.276.276 0 0 1-.239-.414l2.536-4.392a.286.286 0 0 1 .477 0l2.536 4.392a.276.276 0 0 1-.239.414zm-4.594-.551h4.117l-2.059-3.565z" class="cls-2" data-name="패스 52" transform="translate(-277.944 -387.399)"/>
            <path id="패스_53" d="M284.617 384.928h-5.072a.276.276 0 0 1-.238-.138l-2.536-4.392a.276.276 0 0 1 0-.275l2.536-4.392a.275.275 0 0 1 .238-.138h5.072a.276.276 0 0 1 .238.414l-2.455 4.253 2.456 4.255a.276.276 0 0 1-.238.414zm-4.913-.551h4.435l-2.3-3.979a.277.277 0 0 1 0-.276l2.3-3.979H279.7l-2.377 4.117z" class="cls-3" data-name="패스 53" transform="translate(-266.591 -375.592)"/>
            <path id="패스_54" d="M277.275 388.861H272.2a.276.276 0 0 1-.238-.414l2.536-4.392a.276.276 0 0 1 .239-.138.275.275 0 0 1 .238.138l2.536 4.392a.276.276 0 0 1-.239.414zm-4.594-.551h4.119l-2.058-3.565z" class="cls-1" data-name="패스 54" transform="translate(-264.321 -379.525)"/>
            <path id="패스_55" d="M284.352 397.186a.275.275 0 0 1-.238-.138l-2.536-4.392a.276.276 0 0 1 .238-.414h5.072a.276.276 0 0 1 .238.414l-2.536 4.392a.276.276 0 0 1-.238.138zm-2.058-4.392l2.058 3.566 2.059-3.566z" class="cls-1" data-name="패스 55" transform="translate(-268.862 -383.458)"/>
            <path id="패스_56" d="M323.068 418.227H318a.274.274 0 0 1-.238-.138l-2.536-4.392a.276.276 0 0 1 0-.275l2.536-4.392a.275.275 0 0 1 .238-.138h5.072a.275.275 0 0 1 .238.138l2.536 4.392a.273.273 0 0 1 0 .275l-2.536 4.392a.274.274 0 0 1-.242.138zm-4.913-.551h4.754l2.376-4.117-2.376-4.116h-4.754l-2.376 4.116z" class="cls-1" data-name="패스 56" transform="translate(-284.755 -391.323)"/>
            <path id="패스_57" d="M303.843 418.227h-5.071a.276.276 0 0 1-.239-.138L296 413.7a.276.276 0 0 1 0-.275l2.536-4.392a.277.277 0 0 1 .239-.138h5.071a.277.277 0 0 1 .239.138l2.536 4.392a.276.276 0 0 1 0 .275l-2.536 4.392a.276.276 0 0 1-.242.135zm-4.912-.551h4.754l2.377-4.117-2.377-4.116h-4.755l-2.377 4.116z" class="cls-1" data-name="패스 57" transform="translate(-275.673 -391.323)"/>
            <path id="패스_58" d="M277.275 418.236H272.2a.275.275 0 0 1-.238-.413l5.072-8.784a.286.286 0 0 1 .477 0l2.536 4.392a.276.276 0 0 1 0 .275l-2.536 4.392a.276.276 0 0 1-.236.138zm-4.594-.551h4.435l2.376-4.117-2.218-3.841z" class="cls-3" data-name="패스 58" transform="translate(-264.321 -391.332)"/>
            <path id="패스_59" d="M269.933 418.227a.275.275 0 0 1-.238-.138l-2.536-4.392a.276.276 0 0 1 0-.275l2.536-4.392a.276.276 0 0 1 .238-.138H275a.275.275 0 0 1 .238.413l-5.071 8.784a.276.276 0 0 1-.234.138zm-2.217-4.668l2.217 3.841 4.594-7.957h-4.435z" class="cls-4" data-name="패스 59" transform="translate(-262.05 -391.323)"/>
            <path id="패스_60" d="M265.392 384.928h-5.071a.277.277 0 0 1-.239-.138l-2.536-4.392a.277.277 0 0 1 0-.276l2.536-4.392a.276.276 0 0 1 .239-.138h5.071a.276.276 0 0 1 .239.138l2.536 4.392a.277.277 0 0 1 0 .276l-2.536 4.392a.277.277 0 0 1-.239.138zm-4.912-.551h4.754l2.377-4.117-2.377-4.116h-4.754l-2.38 4.116z" class="cls-2" data-name="패스 60" transform="translate(-257.509 -375.592)"/>
            <path id="패스_61" d="M313.456 401.578h-5.072a.276.276 0 0 1-.239-.138l-2.536-4.392a.274.274 0 0 1 0-.275l2.536-4.392a.276.276 0 0 1 .239-.138h5.072a.275.275 0 0 1 .238.138l2.536 4.392a.276.276 0 0 1 0 .275l-2.536 4.392a.275.275 0 0 1-.238.138zm-4.912-.551h4.756l2.376-4.117-2.376-4.116h-4.754l-2.377 4.116z" class="cls-1" data-name="패스 61" transform="translate(-280.214 -383.458)"/>
            <path id="패스_62" d="M294.23 401.578h-5.071a.276.276 0 0 1-.239-.138l-2.536-4.392a.276.276 0 0 1 0-.275l2.536-4.392a.275.275 0 0 1 .238-.138h5.071a.277.277 0 0 1 .239.138l2.532 4.391a.276.276 0 0 1 0 .275l-2.536 4.392a.276.276 0 0 1-.234.139zm-4.912-.551h4.754l2.377-4.117-2.377-4.116h-4.754l-2.377 4.116z" class="cls-4" data-name="패스 62" transform="translate(-271.132 -383.458)"/>
            <path id="패스_63" d="M275 401.578h-5.072a.276.276 0 0 1-.238-.138l-2.536-4.392a.276.276 0 0 1 0-.275l2.536-4.392a.276.276 0 0 1 .238-.138H275a.275.275 0 0 1 .238.138l2.536 4.392a.276.276 0 0 1 0 .275l-2.536 4.392a.275.275 0 0 1-.238.138zm-4.912-.551h4.754l2.376-4.117-2.376-4.116h-4.754l-2.377 4.116z" class="cls-4" data-name="패스 63" transform="translate(-262.05 -383.458)"/>
            <path id="패스_64" d="M306.113 384.928h-5.071a.276.276 0 0 1-.239-.414l2.457-4.255-2.457-4.254a.276.276 0 0 1 .239-.414h5.071a.276.276 0 0 1 .239.138l2.536 4.392a.277.277 0 0 1 0 .276l-2.536 4.392a.277.277 0 0 1-.239.139zm-4.594-.551h4.435l2.377-4.117-2.377-4.116h-4.435l2.3 3.979a.277.277 0 0 1 0 .276z" class="cls-3" data-name="패스 64" transform="translate(-277.944 -375.592)"/>
            <path id="패스_65" d="M296.5 388.87h-5.072a.276.276 0 0 1-.239-.414l2.536-4.392a.286.286 0 0 1 .477 0l2.536 4.392a.276.276 0 0 1-.238.414zm-4.595-.551h4.117l-2.059-3.565z" class="cls-1" data-name="패스 65" transform="translate(-273.403 -379.534)"/>
            <path id="패스_66" d="M293.965 380.536a.276.276 0 0 1-.238-.138l-2.536-4.392a.276.276 0 0 1 .239-.414h5.07a.276.276 0 0 1 .238.414L294.2 380.4a.277.277 0 0 1-.235.136zm-2.059-4.392l2.059 3.566 2.059-3.566z" class="cls-1" data-name="패스 66" transform="translate(-273.403 -375.592)"/>
            <path id="패스_67" d="M289.159 384.937a.277.277 0 0 1-.239-.138l-2.536-4.392a.277.277 0 0 1 0-.276l2.536-4.392a.286.286 0 0 1 .478 0l2.536 4.392a.277.277 0 0 1 0 .276L289.4 384.8a.276.276 0 0 1-.241.137zm-2.218-4.668l2.218 3.841 2.218-3.841-2.218-3.841z" class="cls-4" data-name="패스 67" transform="translate(-271.132 -375.601)"/>
            <path id="패스_68" d="M298.772 384.928a.277.277 0 0 1-.239-.138L296 380.4a.277.277 0 0 1 0-.276l2.536-4.392a.276.276 0 0 1 .239-.138.275.275 0 0 1 .238.138l2.536 4.392a.277.277 0 0 1 0 .276l-2.536 4.392a.276.276 0 0 1-.241.136zm-2.218-4.668l2.218 3.841 2.217-3.841-2.217-3.841z" class="cls-4" data-name="패스 68" transform="translate(-275.673 -375.592)"/>
        </g>
        <g id="그룹_9" data-name="그룹 9" transform="translate(306.565 381.294)">
            <g id="그룹_7" data-name="그룹 7">
                <path id="패스_69" d="M382.562 395.181h3.984v-1.615h-8.015a.3.3 0 0 1-.22-.09.377.377 0 0 1-.089-.274V387.4H376.2v5.626a2.455 2.455 0 0 0 .446 1.657 1.833 1.833 0 0 0 1.429.5h2.47v3.744h-5.652v1.632h13.285v-1.632h-5.616z" class="cls-5" data-name="패스 69" transform="translate(-362.018 -386.87)"/>
                <path id="패스_70" d="M461.265 408.616a.288.288 0 0 1-.066-.2v-3.81h-2.011v4.243a1.591 1.591 0 0 0 .331 1.114 1.273 1.273 0 0 0 .993.355h8.324v-1.632h-7.393a.231.231 0 0 1-.178-.07z" class="cls-5" data-name="패스 70" transform="translate(-401.839 -395.001)"/>
                <path id="사각형_1" d="M0 0h1.935v15.5H0z" class="cls-5" data-name="사각형 1" transform="translate(9.437)"/>
                <path id="패스_71" d="M409.271 390.631h-1.581v-3.707h-1.99v3.307h-2.37v-3.3h-2v7.949a1.563 1.563 0 0 0 .349 1.1 1.212 1.212 0 0 0 .946.372h3.775a1.22 1.22 0 0 0 .947-.372 1.564 1.564 0 0 0 .343-1.1v-2.617h1.581v9.637h1.935v-15.5h-1.935zm-3.573 3.815a.349.349 0 0 1-.056.227.27.27 0 0 1-.208.064H403.6a.4.4 0 0 1-.2-.036c-.04-.024-.059-.1-.059-.236v-2.618h2.359z" class="cls-5" data-name="패스 71" transform="translate(-374.511 -386.4)"/>
                <path id="사각형_2" d="M0 0h1.935v15.5H0z" class="cls-5" data-name="사각형 2" transform="translate(37.988)"/>
                <path id="패스_72" d="M354.218 387.377c-1.861 0-3.729 1.458-3.729 4.771s1.868 4.772 3.729 4.772 3.728-1.458 3.728-4.772-1.867-4.771-3.728-4.771zm0 7.911c-.792 0-1.793-.728-1.793-3.14s1-3.139 1.793-3.139 1.793.728 1.793 3.139-1.001 3.14-1.793 3.14z" class="cls-5" data-name="패스 72" transform="translate(-350.489 -386.861)"/>
                <path id="사각형_3" d="M0 0h1.935v15.5H0z" class="cls-5" data-name="사각형 3" transform="translate(51.073)"/>
                <path id="패스_73" d="M433.135 387.377c-1.861 0-3.728 1.458-3.728 4.771s1.868 4.772 3.728 4.772 3.729-1.458 3.729-4.772-1.864-4.771-3.729-4.771zm0 7.911c-.792 0-1.793-.728-1.793-3.14s1-3.139 1.793-3.139 1.793.728 1.793 3.139-1.001 3.14-1.793 3.14z" class="cls-5" data-name="패스 73" transform="translate(-387.77 -386.861)"/>
                <path id="패스_74" d="M458.009 392.8c.739 1.746 3.469 2.874 3.469 2.874l.746-1.433c-2.188-1.133-3.234-2.358-3.234-4.742v-2.108h-1.963v2.109c0 2.384-1.045 3.609-3.234 4.742l.747 1.433s2.731-1.127 3.469-2.875z" class="cls-5" data-name="패스 74" transform="translate(-399.291 -386.869)"/>
                <path id="패스_75" d="M471.553 397.185h1.962V386.4h-1.962v1.951h-2.12v1.633h2.12v1.282h-2.12v1.634h2.12z" class="cls-5" data-name="패스 75" transform="translate(-406.678 -386.4)"/>
            </g>
            <g id="그룹_8" data-name="그룹 8" transform="translate(71.908)">
                <path id="패스_76" d="M506.6 386.4h-1.935v15.5h1.935v-9.43h2.123v-1.634H506.6z" class="cls-5" data-name="패스 76" transform="translate(-495.232 -386.4)"/>
                <path id="패스_77" d="M490.512 387.377c-1.861 0-3.729 1.458-3.729 4.771s1.868 4.772 3.729 4.772 3.728-1.458 3.728-4.772-1.867-4.771-3.728-4.771zm0 7.911c-.792 0-1.794-.728-1.794-3.14s1-3.139 1.794-3.139 1.793.728 1.793 3.139-1.005 3.14-1.793 3.14z" class="cls-5" data-name="패스 77" transform="translate(-486.783 -386.861)"/>
                <path id="사각형_4" d="M0 0h1.935v15.5H0z" class="cls-5" data-name="사각형 4" transform="translate(51.101)"/>
                <path id="패스_78" d="M514.419 387.751v1.632h4.062v1.054a7 7 0 0 1-.052.858h-4.085v1.632h3.606a7.658 7.658 0 0 1-3.8 3.2l.747 1.433c4.185-1.9 5.52-3.986 5.52-7.286v-2.523z" class="cls-5" data-name="패스 78" transform="translate(-499.711 -387.038)"/>
                <path id="패스_79" d="M541.886 395.333c-.04-.024-.059-.1-.059-.236v-5.732h3.473v-1.614h-5.409v7.761a1.568 1.568 0 0 0 .349 1.1 1.214 1.214 0 0 0 .947.372h4.967v-1.614h-4.065a.4.4 0 0 1-.203-.037z" class="cls-5" data-name="패스 79" transform="translate(-511.871 -387.038)"/>
                <path id="사각형_5" d="M0 0h1.935v15.5H0z" class="cls-5" data-name="사각형 5" transform="translate(38.281)"/>
                <path id="패스_80" d="M551.325 390.836H549.2v1.633h2.12v9.431h1.935v-15.5h-1.935z" class="cls-5" data-name="패스 80" transform="translate(-516.271 -386.4)"/>
                <path id="패스_81" d="M531.916 386.4h-1.935v15.5h1.935v-9.43h2.123v-1.634h-2.123z" class="cls-5" data-name="패스 81" transform="translate(-507.19 -386.4)"/>
                <path id="패스_82" d="M566.74 395.512a1.566 1.566 0 0 0 .349 1.1 1.213 1.213 0 0 0 .947.372h5.443v-9.232h-6.739zm1.935-6.13h2.868v5.968h-2.606a.4.4 0 0 1-.2-.036c-.04-.024-.059-.1-.059-.236z" class="cls-5" data-name="패스 82" transform="translate(-524.555 -387.038)"/>
            </g>
        </g>
    </g>
    <path id="사각형_3208" d="M0 0h174v32H0z" class="cls-6" data-name="사각형 3208"/>
</svg>
