<svg xmlns="http://www.w3.org/2000/svg" id="sns_facebook_footer" width="32" height="32" viewBox="0 0 32 32">
    <defs>
        <style>
            .cls-1{clip-path:url(#clip-path)}.cls-2{clip-path:url(#clip-path-2)}.cls-3{fill:none}
        </style>
        <clipPath id="clip-path">
            <path id="패스_366" d="M93-26a14 14 0 0 0-14-14 14 14 0 0 0-14 14 14 14 0 0 0 11.813 13.83v-9.784h-3.555V-26h3.555v-3.084c0-3.508 2.089-5.447 5.288-5.447a21.532 21.532 0 0 1 3.134.273v3.445h-1.767a2.023 2.023 0 0 0-2.28 2.188V-26h3.882l-.621 4.047h-3.261v9.784A14 14 0 0 0 93-26z" data-name="패스 366" transform="translate(-65 40)"/>
        </clipPath>
        <clipPath id="clip-path-2">
            <path id="패스_365" d="M65-12h28v-28H65z" data-name="패스 365" transform="translate(-65 40)"/>
        </clipPath>
    </defs>
    <g id="그룹_67" class="cls-1" data-name="그룹 67" transform="translate(2 2)">
        <g id="그룹_66" class="cls-2" data-name="그룹 66">
            <path id="패스_364" d="M60-45h35v34.83H60z" data-name="패스 364" transform="translate(-63.5 41.5)"/>
        </g>
    </g>
    <path id="사각형_3206" d="M0 0h32v32H0z" class="cls-3" data-name="사각형 3206"/>
</svg>
