<svg xmlns="http://www.w3.org/2000/svg" id="sns_instagram_large" width="32" height="32" viewBox="0 0 32 32">
    <defs>
        <style>
            .cls-1,.cls-2{fill:#aaabab}.cls-1{fill-rule:evenodd}.cls-3{fill:none}
        </style>
    </defs>
    <g id="black" transform="translate(1.6 1.6)">
        <path id="패스_759" d="M14.4 0a14.4 14.4 0 1 0 14.4 14.4A14.4 14.4 0 0 0 14.4 0zm-3.166 6.766c.819-.037 1.081-.046 3.167-.046s2.347.009 3.166.046a5.654 5.654 0 0 1 1.866.357 3.929 3.929 0 0 1 2.246 2.246 5.689 5.689 0 0 1 .357 1.864c.037.819.046 1.081.046 3.167s-.01 2.347-.046 3.166a5.692 5.692 0 0 1-.357 1.864 3.935 3.935 0 0 1-2.246 2.247 5.645 5.645 0 0 1-1.865.357c-.819.037-1.08.046-3.166.046s-2.347-.009-3.166-.046a5.641 5.641 0 0 1-1.864-.357 3.93 3.93 0 0 1-2.249-2.247 5.644 5.644 0 0 1-.357-1.864c-.037-.819-.046-1.08-.046-3.166s.01-2.348.046-3.167a5.611 5.611 0 0 1 .357-1.864A3.929 3.929 0 0 1 9.37 7.123a5.637 5.637 0 0 1 1.864-.357z" class="cls-1" data-name="패스 759"/>
        <path id="패스_760" d="M19.115 13.505h.685c2.051 0 2.294.007 3.1.044a4.252 4.252 0 0 1 1.426.264 2.545 2.545 0 0 1 1.457 1.458 4.244 4.244 0 0 1 .264 1.426c.037.81.045 1.053.045 3.1s-.008 2.293-.045 3.1a4.248 4.248 0 0 1-.264 1.426 2.547 2.547 0 0 1-1.457 1.457 4.235 4.235 0 0 1-1.426.265c-.81.037-1.053.045-3.1.045s-2.294-.008-3.1-.045a4.26 4.26 0 0 1-1.426-.265 2.545 2.545 0 0 1-1.458-1.457 4.243 4.243 0 0 1-.264-1.426c-.037-.81-.044-1.053-.044-3.1s.007-2.293.044-3.1a4.252 4.252 0 0 1 .264-1.426 2.545 2.545 0 0 1 1.458-1.458 4.243 4.243 0 0 1 1.426-.265c.708-.032.983-.042 2.414-.043zm4.785 1.276a.921.921 0 1 0 .922.921.922.922 0 0 0-.922-.921zM15.86 19.8a3.944 3.944 0 1 1 3.94 3.945 3.944 3.944 0 0 1-3.94-3.945z" class="cls-1" data-name="패스 760" transform="translate(-5.403 -5.401)"/>
        <path id="패스_761" d="M22.295 19.733a2.56 2.56 0 1 1-2.56 2.56 2.56 2.56 0 0 1 2.56-2.56z" class="cls-2" data-name="패스 761" transform="translate(-7.894 -7.893)"/>
    </g>
    <path id="사각형_3322" d="M0 0h32v32H0z" class="cls-3" data-name="사각형 3322"/>
</svg>
