<svg xmlns="http://www.w3.org/2000/svg" id="sns_instagram_footer" width="32" height="32" viewBox="0 0 32 32">
    <defs>
        <style>
            .cls-1{fill-rule:evenodd}.cls-2{fill:none}
        </style>
    </defs>
    <g id="black" transform="translate(2 2)">
        <path id="패스_759" d="M14 0a14 14 0 1 0 14 14A14 14 0 0 0 14 0zm-3.078 6.578c.8-.036 1.051-.045 3.079-.045 2.028 0 2.282.009 3.078.045a5.5 5.5 0 0 1 1.814.347 3.82 3.82 0 0 1 2.184 2.184 5.531 5.531 0 0 1 .347 1.812c.036.8.045 1.051.045 3.079s-.009 2.282-.045 3.078a5.534 5.534 0 0 1-.347 1.812 3.826 3.826 0 0 1-2.184 2.184 5.489 5.489 0 0 1-1.813.347c-.8.036-1.05.045-3.078.045s-2.282-.009-3.078-.045a5.485 5.485 0 0 1-1.813-.347 3.821 3.821 0 0 1-2.186-2.184 5.487 5.487 0 0 1-.347-1.812c-.036-.8-.045-1.05-.045-3.078s.009-2.282.045-3.079a5.455 5.455 0 0 1 .347-1.812A3.82 3.82 0 0 1 9.11 6.925a5.48 5.48 0 0 1 1.812-.347z" class="cls-1" data-name="패스 759"/>
        <path id="패스_760" d="M18.959 13.505h.67c1.994 0 2.23.007 3.017.043a4.134 4.134 0 0 1 1.386.257 2.474 2.474 0 0 1 1.417 1.417 4.126 4.126 0 0 1 .257 1.386c.036.787.044 1.024.044 3.016s-.008 2.229-.044 3.016a4.13 4.13 0 0 1-.257 1.386 2.476 2.476 0 0 1-1.417 1.416 4.118 4.118 0 0 1-1.386.257c-.787.036-1.024.044-3.017.044s-2.23-.008-3.017-.044a4.142 4.142 0 0 1-1.386-.257 2.474 2.474 0 0 1-1.417-1.417 4.125 4.125 0 0 1-.257-1.386c-.036-.787-.043-1.024-.043-3.018s.007-2.229.043-3.016a4.134 4.134 0 0 1 .257-1.386 2.475 2.475 0 0 1 1.416-1.419 4.125 4.125 0 0 1 1.386-.257c.689-.031.956-.04 2.347-.042zm4.656 1.24a.9.9 0 1 0 .9.9.9.9 0 0 0-.9-.9zm-7.82 4.881a3.834 3.834 0 1 1 3.834 3.834 3.835 3.835 0 0 1-3.834-3.833z" class="cls-1" data-name="패스 760" transform="translate(-5.628 -5.626)"/>
        <path id="패스_761" d="M22.223 19.733a2.489 2.489 0 1 1-2.489 2.489 2.489 2.489 0 0 1 2.489-2.489z" data-name="패스 761" transform="translate(-8.223 -8.222)"/>
    </g>
    <path id="사각형_3322" d="M0 0h32v32H0z" class="cls-2" data-name="사각형 3322"/>
</svg>
