<svg xmlns="http://www.w3.org/2000/svg" id="sns_git_footer" width="32" height="32" viewBox="0 0 32 32">
    <defs>
        <style>
            .cls-1{clip-path:url(#clip-path)}.cls-2{clip-path:url(#clip-path-2)}.cls-3{clip-path:url(#clip-path-3)}.cls-4{clip-path:url(#clip-path-4)}.cls-5{clip-path:url(#clip-path-5)}.cls-6{clip-path:url(#clip-path-7)}.cls-7{clip-path:url(#clip-path-9)}.cls-8{clip-path:url(#clip-path-11)}.cls-9{clip-path:url(#clip-path-13)}.cls-10{clip-path:url(#clip-path-15)}.cls-11{fill:none}
        </style>
        <clipPath id="clip-path">
            <path id="패스_341" d="M144.073-39.85a14.122 14.122 0 0 0-14 14.239 14.223 14.223 0 0 0 9.574 13.511c.7.132.957-.309.957-.685 0-.34-.013-1.461-.019-2.651-3.895.861-4.717-1.68-4.717-1.68a3.754 3.754 0 0 0-1.554-2.084c-1.27-.884.1-.866.1-.866a2.948 2.948 0 0 1 2.146 1.467 2.952 2.952 0 0 0 4.074 1.184 3.052 3.052 0 0 1 .889-1.9c-3.11-.36-6.378-1.581-6.378-7.037a5.563 5.563 0 0 1 1.443-3.822 5.2 5.2 0 0 1 .136-3.768s1.176-.383 3.851 1.46a13.207 13.207 0 0 1 3.5-.479 13.24 13.24 0 0 1 3.507.479c2.672-1.842 3.846-1.46 3.846-1.46a5.191 5.191 0 0 1 .137 3.768A5.552 5.552 0 0 1 153-26.355c0 5.469-3.275 6.673-6.393 7.026a3.435 3.435 0 0 1 .95 2.637c0 1.9-.016 3.438-.016 3.908 0 .379.252.823.962.683a14.222 14.222 0 0 0 9.566-13.51 14.121 14.121 0 0 0-13.996-14.239z" data-name="패스 341" transform="translate(-130.073 39.85)"/>
        </clipPath>
        <clipPath id="clip-path-2">
            <path id="패스_340" d="M130-11.948h28.052V-40H130z" data-name="패스 340" transform="translate(-130 40)"/>
        </clipPath>
        <clipPath id="clip-path-3">
            <path id="패스_344" d="M137.453-10.815c-.029.067-.132.087-.226.041s-.149-.135-.118-.2.132-.087.227-.042.15.134.117.201z" data-name="패스 344" transform="translate(-137.099 11.042)"/>
        </clipPath>
        <clipPath id="clip-path-4">
            <path id="패스_343" d="M130-13.571h26.429V-40H130z" data-name="패스 343" transform="translate(-130 40)"/>
        </clipPath>
        <clipPath id="clip-path-5">
            <path id="패스_347" d="M138.264-9.972c-.063.059-.186.032-.269-.062a.208.208 0 0 1-.039-.279c.065-.059.184-.032.271.062s.103.219.037.279z" data-name="패스 347" transform="translate(-137.918 10.344)"/>
        </clipPath>
        <clipPath id="clip-path-7">
            <path id="패스_350" d="M139.047-8.847c-.081.057-.213 0-.295-.116s-.081-.262 0-.32.212-.006.295.113a.24.24 0 0 1 0 .323z" data-name="패스 350" transform="translate(-138.692 9.306)"/>
        </clipPath>
        <clipPath id="clip-path-9">
            <path id="패스_353" d="M140.076-7.709c-.072.081-.226.059-.339-.051a.261.261 0 0 1-.075-.343c.073-.081.228-.058.342.051s.149.263.072.343z" data-name="패스 353" transform="translate(-139.623 8.152)"/>
        </clipPath>
        <clipPath id="clip-path-11">
            <path id="패스_356" d="M141.512-6.976c-.032.105-.18.153-.33.108s-.247-.169-.217-.275.18-.155.33-.108.248.168.217.275z" data-name="패스 356" transform="translate(-140.961 7.269)"/>
        </clipPath>
        <clipPath id="clip-path-13">
            <path id="패스_359" d="M143.138-6.8c0 .111-.123.2-.28.2s-.285-.086-.287-.195.124-.2.282-.205.285.085.285.2z" data-name="패스 359" transform="translate(-142.572 7)"/>
        </clipPath>
        <clipPath id="clip-path-15">
            <path id="패스_362" d="M144.661-7.046c.019.108-.09.219-.246.248s-.295-.038-.314-.145.092-.222.245-.25.295.037.315.147z" data-name="패스 362" transform="translate(-144.099 7.199)"/>
        </clipPath>
    </defs>
    <g id="그룹_135" data-name="그룹 135" transform="translate(-83.942 41.901)">
        <g id="그룹_48" class="cls-1" data-name="그룹 48" transform="translate(85.942 -39.901)">
            <g id="그룹_47" class="cls-2" data-name="그룹 47" transform="translate(-.051 -.105)">
                <path id="패스_339" d="M125.073-44.85h35.013v34.788h-35.013z" data-name="패스 339" transform="translate(-128.528 41.449)"/>
            </g>
        </g>
        <g id="그룹_50" class="cls-3" data-name="그룹 50" transform="translate(90.584 -19.685)">
            <g id="그룹_49" class="cls-4" data-name="그룹 49" transform="translate(-4.691 -19.133)">
                <path id="패스_342" d="M132.1-16.042h6.97v6.9h-6.97z" data-name="패스 342" transform="translate(-130.712 31.872)"/>
            </g>
        </g>
        <g id="그룹_52" class="cls-5" data-name="그룹 52" transform="translate(91.448 -19.189)">
            <g id="그룹_51" class="cls-4" data-name="그룹 51" transform="translate(-5.231 -19.594)">
                <path id="패스_345" d="M132.918-15.344h6.994v7.01h-6.994z" data-name="패스 345" transform="translate(-130.99 31.635)"/>
            </g>
        </g>
        <g id="그룹_54" class="cls-6" data-name="그룹 54" transform="translate(91.992 -18.457)">
            <g id="그룹_53" class="cls-4" data-name="그룹 53" transform="translate(-5.743 -20.28)">
                <path id="패스_348" d="M133.692-14.306h7.024v7.089h-7.024z" data-name="패스 348" transform="translate(-131.253 31.283)"/>
            </g>
        </g>
        <g id="그룹_56" class="cls-7" data-name="그룹 56" transform="translate(92.647 -17.35)">
            <g id="그룹_55" class="cls-4" data-name="그룹 55" transform="translate(-6.358 -21.043)">
                <path id="패스_351" d="M134.623-13.152h7.1v7.1h-7.1z" data-name="패스 351" transform="translate(-131.569 30.891)"/>
            </g>
        </g>
        <g id="그룹_58" class="cls-8" data-name="그룹 58" transform="translate(93.587 -16.767)">
            <g id="그룹_57" class="cls-4" data-name="그룹 57" transform="translate(-7.242 -21.626)">
                <path id="패스_354" d="M135.961-12.269h7.165v7.025h-7.165z" data-name="패스 354" transform="translate(-132.022 30.592)"/>
            </g>
        </g>
        <g id="그룹_60" class="cls-9" data-name="그룹 60" transform="translate(94.718 -16.589)">
            <g id="그룹_59" class="cls-4" data-name="그룹 59" transform="translate(-8.306 -21.803)">
                <path id="패스_357" d="M137.572-12h7.174v7.007h-7.174z" data-name="패스 357" transform="translate(-132.569 30.5)"/>
            </g>
        </g>
        <g id="그룹_62" class="cls-10" data-name="그룹 62" transform="translate(95.791 -16.721)">
            <g id="그룹_61" class="cls-4" data-name="그룹 61" transform="translate(-9.315 -21.672)">
                <path id="패스_360" d="M139.1-12.2h7.172v7.015H139.1z" data-name="패스 360" transform="translate(-133.087 30.568)"/>
            </g>
        </g>
    </g>
    <path id="사각형_3207" d="M0 0h32v32H0z" class="cls-11" data-name="사각형 3207"/>
</svg>
