<svg xmlns="http://www.w3.org/2000/svg" id="sns_youtube_large" width="40" height="40" viewBox="0 0 40 40">
    <defs>
        <style>
            .cls-1,.cls-2{fill:#aaabab}.cls-1{clip-rule:evenodd}.cls-3{isolation:isolate}.cls-4{clip-path:url(#clip-path)}.cls-5{clip-path:url(#clip-path-2)}.cls-6{clip-path:url(#clip-path-3)}.cls-7{clip-path:url(#clip-path-4)}.cls-8{fill:none}
        </style>
        <clipPath id="clip-path">
            <path id="패스_370" d="M18-40A18 18 0 0 0 0-22 18 18 0 0 0 18-4a18 18 0 0 0 18-18 18 18 0 0 0-18-18zm7.5 11.812a2.438 2.438 0 0 1 1.7 1.743 26.323 26.323 0 0 1 .4 4.745 26.324 26.324 0 0 1-.4 4.745 2.438 2.438 0 0 1-1.7 1.743C24-14.8 18-14.8 18-14.8s-6 0-7.5-.412a2.438 2.438 0 0 1-1.7-1.743 26.334 26.334 0 0 1-.4-4.745 26.333 26.333 0 0 1 .4-4.745 2.438 2.438 0 0 1 1.7-1.743C12-28.6 18-28.6 18-28.6s6 0 7.5.412z" class="cls-1" data-name="패스 370" transform="translate(0 40)"/>
        </clipPath>
        <clipPath id="clip-path-2">
            <path id="패스_369" d="M0-4h36v-36H0z" class="cls-2" data-name="패스 369" transform="translate(0 40)"/>
        </clipPath>
        <clipPath id="clip-path-3">
            <path id="패스_373" d="M18-18.262v-4.4l3.524 2.2z" class="cls-2" data-name="패스 373" transform="translate(-18 22.667)"/>
        </clipPath>
        <clipPath id="clip-path-4">
            <path id="패스_372" d="M0-13.571h26.429V-40H0z" class="cls-2" data-name="패스 372" transform="translate(0 40)"/>
        </clipPath>
    </defs>
    <g id="그룹_76" class="cls-3" data-name="그룹 76" transform="translate(2 2)">
        <g id="그룹_72" class="cls-4" data-name="그룹 72">
            <g id="그룹_71" class="cls-5" data-name="그룹 71">
                <path id="패스_368" d="M-5-45h45V0H-5z" class="cls-2" data-name="패스 368" transform="translate(.5 40.5)"/>
            </g>
        </g>
        <g id="그룹_74" class="cls-6" data-name="그룹 74" transform="translate(16.863 16.429)">
            <g id="그룹_73" class="cls-7" data-name="그룹 73" transform="translate(-11.893 -11.452)">
                <path id="패스_371" d="M13-27.667h10.131v11.012H13z" class="cls-2" data-name="패스 371" transform="translate(-4.411 35.816)"/>
            </g>
        </g>
    </g>
    <path id="사각형_3205" d="M0 0h40v40H0z" class="cls-8" data-name="사각형 3205"/>
</svg>
